<svg data-v-423bf9ae="" xmlns="http://www.w3.org/2000/svg" viewBox="0 0 135.21427868337096 180" class="iconAboveSlogan"><!----><!----><!----><g data-v-423bf9ae="" id="99ea3b4e-fdee-43f8-8096-86bd3e6bb7ed" fill="white" transform="matrix(7.1428566562886475,0,0,7.1428566562886475,-4.785715800159082,89.71428925893738)"><path d="M9.46 10.26L8.65 1.86L7.41 1.86L5.07 5.11L2.73 1.86L1.13 1.86L1.39 2.91L0.67 10.26L2.04 10.26L2.60 3.79L4.72 6.66L5.42 6.66L7.53 3.79L8.09 10.26ZM19.60 10.26L18.79 1.86L17.54 1.86L15.20 5.11L12.87 1.86L11.27 1.86L11.52 2.91L10.81 10.26L12.18 10.26L12.74 3.79L14.85 6.66L15.55 6.66L17.67 3.79L18.23 10.26Z"></path></g><!----><g data-v-423bf9ae="" id="32417d19-283c-4a45-bd54-a5e6a4417c9f" transform="matrix(1.1249718911518591,0,0,1.1249718911518591,11.751258571844339,-10.249468985852026)" stroke="none" fill="white"><path stroke-width="2" stroke-linecap="round" stroke-linejoin="round" stroke-miterlimit="10" d="M82.94 90l6.938-35.205c.733-3.932-1.937-7.15-5.936-7.15H16.057c-4.002 0-6.672 3.218-5.935 7.15L17.059 90H82.94zM47.459 38.233h-4.52l-4.706-9.413h-16.47a4.705 4.705 0 0 0-4.702 4.707v14.118h28.524l1.874-9.412z"></path><path stroke="#000" stroke-width="2.00004" stroke-linecap="round" stroke-linejoin="round" stroke-miterlimit="10" d="M65.769 12.526l11.537 2.295-2.066 10.384-11.537-2.295z"></path><path stroke="#000" stroke-width="2.00008" stroke-linecap="round" stroke-linejoin="round" stroke-miterlimit="10" d="M83.075 15.97L90 17.346l-1.374 6.926-6.925-1.374z"></path><path stroke="#000" stroke-width="2.00008" stroke-linecap="round" stroke-linejoin="round" stroke-miterlimit="10" d="M81.699 22.896l6.925 1.378-1.377 6.922-6.926-1.379z"></path><path stroke="#000" stroke-width="2.00008" stroke-linecap="round" stroke-linejoin="round" stroke-miterlimit="10" d="M80.32 29.817l6.926 1.378-1.378 6.926-6.925-1.379z"></path><path stroke="#000" stroke-width="2.00004" stroke-linecap="round" stroke-linejoin="round" stroke-miterlimit="10" d="M53.073 9.998l6.926 1.378-1.377 6.922-6.926-1.378z"></path><path stroke="#000" stroke-width="2.00008" stroke-linecap="round" stroke-linejoin="round" stroke-miterlimit="10" d="M51.696 16.923L58.62 18.3l-1.378 6.925-6.924-1.378z"></path><path stroke="#000" stroke-width="2.00004" stroke-linecap="round" stroke-linejoin="round" stroke-miterlimit="10" d="M50.315 23.848l6.927 1.374-1.374 6.926-6.927-1.374z"></path><path stroke="#000" stroke-width="2.00004" stroke-linecap="round" stroke-linejoin="round" stroke-miterlimit="10" d="M48.942 30.77l6.926 1.377-1.377 6.922-6.926-1.378z"></path><path stroke="#000" stroke-width="2" stroke-linecap="round" stroke-linejoin="round" stroke-miterlimit="10" d="M76.773 47.645l6.302-31.678-23.078-4.592-7.214 36.27z"></path><path stroke="#000" stroke-width="2" stroke-linecap="round" stroke-linejoin="round" stroke-miterlimit="10" d="M70.776 47.645l3.316-16.675-11.539-2.294-3.773 18.969zM83.943 47.645c.01 0 .019.004.029.004l1.895-9.533-6.925-1.378-2.17 10.907h7.171zM52.783 47.645l1.705-8.575-6.925-1.378-1.98 9.953z"></path></g><!----><g data-v-423bf9ae="" id="be901140-8127-46f3-975f-fb7c417cafb3" fill="white" transform="matrix(0.4256661902679005,0,0,0.4256661902679005,18.10445614628769,205.4477927566964)"><path d="M10.54 5.74L10.54 5.74L10.54 5.74Q10.58 5.98 10.61 6.07L10.61 6.07L10.61 6.07Q10.63 6.16 10.63 6.31L10.63 6.31L10.63 6.31Q10.63 6.78 10.42 7.18L10.42 7.18L10.42 7.18Q10.22 7.57 9.87 7.74L9.87 7.74L9.87 7.74Q9.59 7.36 9.18 7.09L9.18 7.09L9.18 7.09Q8.78 6.82 8.29 6.64L8.29 6.64L8.29 6.64Q7.81 6.47 7.29 6.38L7.29 6.38L7.29 6.38Q6.78 6.30 6.29 6.30L6.29 6.30L6.29 6.30Q5.80 6.30 5.37 6.38L5.37 6.38L5.37 6.38Q4.94 6.45 4.61 6.59L4.61 6.59L4.61 6.59Q4.28 6.72 4.09 6.92L4.09 6.92L4.09 6.92Q3.91 7.11 3.91 7.36L3.91 7.36L3.91 7.36Q3.95 7.67 4.28 7.99L4.28 7.99L4.28 7.99Q4.62 8.30 5.11 8.60L5.11 8.60L5.11 8.60Q5.60 8.90 6.20 9.20L6.20 9.20L6.20 9.20Q6.79 9.49 7.36 9.76L7.36 9.76L7.36 9.76Q8.08 10.09 8.60 10.38L8.60 10.38L8.60 10.38Q9.11 10.67 9.45 11.01L9.45 11.01L9.45 11.01Q9.79 11.35 9.95 11.79L9.95 11.79L9.95 11.79Q10.12 12.22 10.12 12.84L10.12 12.84L10.12 12.84Q10.12 13.55 9.88 14.18L9.88 14.18L9.88 14.18Q9.65 14.80 9.19 15.26L9.19 15.26L9.19 15.26Q8.74 15.72 8.09 15.98L8.09 15.98L8.09 15.98Q7.45 16.24 6.65 16.24L6.65 16.24L6.65 16.24Q5.87 16.24 4.96 16.00L4.96 16.00L4.96 16.00Q4.05 15.76 3.25 15.35L3.25 15.35L3.25 15.35Q2.46 14.94 1.94 14.40L1.94 14.40L1.94 14.40Q1.41 13.86 1.41 13.26L1.41 13.26L1.41 13.26Q1.41 12.98 1.57 12.54L1.57 12.54L1.57 12.54Q1.74 12.11 2.16 11.63L2.16 11.63L2.16 11.63Q2.20 12.05 2.61 12.63L2.61 12.63L2.61 12.63Q3.02 13.20 3.85 13.69L3.85 13.69L3.85 13.69Q4.62 14.14 5.44 14.34L5.44 14.34L5.44 14.34Q6.26 14.55 6.97 14.55L6.97 14.55L6.97 14.55Q7.76 14.55 8.25 14.35L8.25 14.35L8.25 14.35Q8.74 14.15 9.02 13.88L9.02 13.88L9.02 13.88Q9.30 13.61 9.41 13.33L9.41 13.33L9.41 13.33Q9.52 13.05 9.53 12.88L9.53 12.88L9.53 12.88Q9.52 12.60 9.28 12.34L9.28 12.34L9.28 12.34Q9.03 12.08 8.62 11.84L8.62 11.84L8.62 11.84Q8.20 11.59 7.66 11.34L7.66 11.34L7.66 11.34Q7.11 11.09 6.52 10.84L6.52 10.84L6.52 10.84Q5.64 10.44 5.00 10.10L5.00 10.10L5.00 10.10Q4.37 9.76 3.96 9.40L3.96 9.40L3.96 9.40Q3.54 9.04 3.35 8.65L3.35 8.65L3.35 8.65Q3.16 8.26 3.16 7.76L3.16 7.76L3.16 7.76Q3.16 6.97 3.64 6.27L3.64 6.27L3.64 6.27Q4.12 5.57 5.01 5.21L5.01 5.21L5.01 5.21Q5.46 5.01 5.97 4.93L5.97 4.93L5.97 4.93Q6.48 4.84 6.97 4.84L6.97 4.84L6.97 4.84Q7.90 4.84 8.78 5.10L8.78 5.10L8.78 5.10Q9.66 5.35 10.54 5.74ZM24.02 9.21L24.02 9.21L24.02 9.21Q24.49 9.21 24.74 9.46L24.74 9.46L24.74 9.46Q25.00 9.72 25.00 10.16L25.00 10.16L25.00 10.16Q25.00 10.28 24.98 10.39L24.98 10.39L24.98 10.39Q24.96 10.51 24.93 10.60L24.93 10.60L24.93 10.60Q24.75 10.57 24.53 10.55L24.53 10.55L24.53 10.55Q24.30 10.53 24.00 10.53L24.00 10.53L24.00 10.53Q23.39 10.53 22.78 10.63L22.78 10.63L22.78 10.63Q22.16 10.74 21.60 10.81L21.60 10.81L21.60 10.81Q21.28 11.55 21.01 12.24L21.01 12.24L21.01 12.24Q20.75 12.94 20.56 13.51L20.56 13.51L20.56 13.51Q20.37 14.08 20.27 14.50L20.27 14.50L20.27 14.50Q20.16 14.92 20.15 15.13L20.15 15.13L20.15 15.13Q21.28 14.90 22.43 14.73L22.43 14.73L22.43 14.73Q23.59 14.56 24.86 14.48L24.86 14.48L24.86 14.48Q25.02 14.71 25.12 14.99L25.12 14.99L25.12 14.99Q25.23 15.27 25.23 15.60L25.23 15.60L25.23 15.60Q25.23 15.68 25.23 15.78L25.23 15.78L25.23 15.78Q25.23 15.88 25.20 15.97L25.20 15.97L25.20 15.97Q24.81 15.96 24.37 15.95L24.37 15.95L24.37 15.95Q23.94 15.95 23.24 15.95L23.24 15.95L23.24 15.95Q22.78 15.95 22.36 15.97L22.36 15.97L22.36 15.97Q21.95 15.99 21.53 16.03L21.53 16.03L21.53 16.03Q21.11 16.07 20.64 16.14L20.64 16.14L20.64 16.14Q20.17 16.21 19.59 16.31L19.59 16.31L19.59 16.31Q18.94 16.06 18.34 15.08L18.34 15.08L18.34 15.08Q18.58 14.57 19.00 13.54L19.00 13.54L19.00 13.54Q19.43 12.52 20.09 10.79L20.09 10.79L20.09 10.79Q19.46 10.60 19.26 10.09L19.26 10.09L19.26 10.09Q19.33 10.02 19.67 9.92L19.67 9.92L19.67 9.92Q20.01 9.81 20.50 9.70L20.50 9.70L20.50 9.70Q20.71 9.16 20.85 8.75L20.85 8.75L20.85 8.75Q21 8.34 21.11 7.99L21.11 7.99L21.11 7.99Q21.22 7.63 21.31 7.29L21.31 7.29L21.31 7.29Q21.41 6.94 21.49 6.54L21.49 6.54L21.49 6.54Q21 6.51 20.72 6.27L20.72 6.27L20.72 6.27Q20.44 6.02 20.44 5.63L20.44 5.63L20.44 5.63Q20.44 5.52 20.48 5.36L20.48 5.36L20.48 5.36Q20.51 5.21 20.55 5.10L20.55 5.10L20.55 5.10Q20.83 5.14 21.09 5.15L21.09 5.15L21.09 5.15Q21.35 5.17 21.77 5.17L21.77 5.17L21.77 5.17Q22.65 5.17 23.42 5.12L23.42 5.12L23.42 5.12Q24.19 5.07 24.81 5.01L24.81 5.01L24.81 5.01Q25.44 4.96 25.89 4.91L25.89 4.91L25.89 4.91Q26.33 4.86 26.57 4.86L26.57 4.86L26.57 4.86Q26.89 4.86 27.15 5.19L27.15 5.19L27.15 5.19Q27.40 5.53 27.52 6.15L27.52 6.15L27.52 6.15Q27.09 6.10 26.82 6.09L26.82 6.09L26.82 6.09Q26.54 6.08 26.33 6.08L26.33 6.08L26.33 6.08Q25.56 6.08 24.93 6.15L24.93 6.15L24.93 6.15Q24.29 6.23 23.70 6.31L23.70 6.31L23.70 6.31Q23.62 6.44 23.51 6.64L23.51 6.64L23.51 6.64Q23.41 6.83 23.24 7.18L23.24 7.18L23.24 7.18Q23.07 7.53 22.83 8.06L22.83 8.06L22.83 8.06Q22.58 8.60 22.23 9.39L22.23 9.39L22.23 9.39Q22.76 9.31 23.23 9.26L23.23 9.26L23.23 9.26Q23.70 9.21 24.02 9.21ZM34.40 16.24L34.40 16.24L34.40 16.24Q33.73 16.04 33.47 15.85L33.47 15.85L33.47 15.85Q33.21 15.65 33.21 15.36L33.21 15.36L33.21 15.36Q33.21 15.13 33.33 14.73L33.33 14.73L33.33 14.73Q33.46 14.32 33.70 13.77L33.70 13.77L33.70 13.77Q33.95 13.22 34.29 12.54L34.29 12.54L34.29 12.54Q34.64 11.87 35.07 11.10L35.07 11.10L35.07 11.10Q34.71 11.09 34.42 11.08L34.42 11.08L34.42 11.08Q34.13 11.07 33.95 11.07L33.95 11.07L33.95 11.07Q34.03 10.86 34.43 10.71L34.43 10.71L34.43 10.71Q34.82 10.56 35.46 10.44L35.46 10.44L35.46 10.44Q36.01 9.53 36.63 8.71L36.63 8.71L36.63 8.71Q37.25 7.88 37.88 7.19L37.88 7.19L37.88 7.19Q38.51 6.50 39.14 5.97L39.14 5.97L39.14 5.97Q39.77 5.45 40.35 5.14L40.35 5.14L40.35 5.14Q40.36 5.04 40.37 4.97L40.37 4.97L40.37 4.97Q40.38 4.90 40.38 4.87L40.38 4.87L40.38 4.87Q40.57 4.87 40.90 4.97L40.90 4.97L40.90 4.97Q41.23 5.07 41.55 5.21L41.55 5.21L41.55 5.21Q41.86 5.35 42.10 5.49L42.10 5.49L42.10 5.49Q42.35 5.64 42.38 5.74L42.38 5.74L42.38 5.74Q41.92 6.55 41.47 8.17L41.47 8.17L41.47 8.17Q41.02 9.79 40.73 12.04L40.73 12.04L40.73 12.04Q40.66 12.60 40.61 13.31L40.61 13.31L40.61 13.31Q40.56 14.03 40.56 14.91L40.56 14.91L40.56 14.91Q40.56 15.22 40.56 15.54L40.56 15.54L40.56 15.54Q40.56 15.86 40.59 16.21L40.59 16.21L40.59 16.21Q40.56 16.23 40.53 16.23L40.53 16.23L40.53 16.23Q40.50 16.23 40.42 16.23L40.42 16.23L40.42 16.23Q40.22 16.23 39.96 16.16L39.96 16.16L39.96 16.16Q39.70 16.10 39.46 16.01L39.46 16.01L39.46 16.01Q39.21 15.92 39.04 15.81L39.04 15.81L39.04 15.81Q38.86 15.69 38.82 15.61L38.82 15.61L38.82 15.61Q38.81 15.43 38.81 15.25L38.81 15.25L38.81 15.25Q38.81 15.08 38.81 14.88L38.81 14.88L38.81 14.88Q38.81 14.01 38.87 13.12L38.87 13.12L38.87 13.12Q38.93 12.22 39.09 11.27L39.09 11.27L39.09 11.27Q38.89 11.26 38.57 11.23L38.57 11.23L38.57 11.23Q38.25 11.21 37.85 11.20L37.85 11.20L37.85 11.20Q37.45 11.19 36.99 11.16L36.99 11.16L36.99 11.16Q36.54 11.14 36.11 11.13L36.11 11.13L36.11 11.13Q35.77 11.76 35.48 12.38L35.48 12.38L35.48 12.38Q35.18 13.01 34.97 13.64L34.97 13.64L34.97 13.64Q34.73 14.31 34.59 14.98L34.59 14.98L34.59 14.98Q34.44 15.65 34.40 16.24ZM39.80 7.83L39.80 7.83L39.80 7.83Q39.86 7.63 39.94 7.29L39.94 7.29L39.94 7.29Q40.01 6.94 40.08 6.57L40.08 6.57L40.08 6.57Q39.73 6.69 39.30 7.03L39.30 7.03L39.30 7.03Q38.88 7.36 38.42 7.86L38.42 7.86L38.42 7.86Q37.97 8.36 37.50 8.98L37.50 8.98L37.50 8.98Q37.03 9.60 36.60 10.30L36.60 10.30L36.60 10.30Q37.77 10.21 39.27 10.18L39.27 10.18L39.27 10.18Q39.38 9.59 39.52 9.01L39.52 9.01L39.52 9.01Q39.65 8.43 39.80 7.83ZM59.28 7.46L59.28 7.46L59.28 7.46Q59.28 8.13 58.98 8.73L58.98 8.73L58.98 8.73Q58.67 9.32 58.14 9.79L58.14 9.79L58.14 9.79Q57.61 10.26 56.90 10.58L56.90 10.58L56.90 10.58Q56.18 10.91 55.34 11.02L55.34 11.02L55.34 11.02Q55.55 11.65 55.85 12.31L55.85 12.31L55.85 12.31Q56.15 12.98 56.50 13.59L56.50 13.59L56.50 13.59Q56.85 14.21 57.23 14.73L57.23 14.73L57.23 14.73Q57.61 15.25 57.97 15.58L57.97 15.58L57.97 15.58Q57.90 15.72 57.77 15.86L57.77 15.86L57.77 15.86Q57.64 16.00 57.46 16.12L57.46 16.12L57.46 16.12Q57.29 16.24 57.10 16.32L57.10 16.32L57.10 16.32Q56.91 16.39 56.74 16.39L56.74 16.39L56.74 16.39Q56.43 16.39 56.15 16.10L56.15 16.10L56.15 16.10Q55.87 15.81 55.59 15.17L55.59 15.17L55.59 15.17Q55.30 14.53 54.98 13.52L54.98 13.52L54.98 13.52Q54.67 12.50 54.29 11.07L54.29 11.07L54.29 11.07Q54.14 11.07 53.98 11.07L53.98 11.07L53.98 11.07Q53.83 11.07 53.75 11.05L53.75 11.05L53.75 11.05Q53.65 10.99 53.54 10.85L53.54 10.85L53.54 10.85Q53.16 11.66 52.86 12.38L52.86 12.38L52.86 12.38Q52.57 13.09 52.34 13.76L52.34 13.76L52.34 13.76Q52.11 14.42 51.93 15.04L51.93 15.04L51.93 15.04Q51.76 15.67 51.63 16.31L51.63 16.31L51.63 16.31Q51.16 16.20 50.81 15.90L50.81 15.90L50.81 15.90Q50.46 15.61 50.15 15.08L50.15 15.08L50.15 15.08Q50.20 14.95 50.27 14.83L50.27 14.83L50.27 14.83Q50.33 14.71 50.43 14.50L50.43 14.50L50.43 14.50Q50.53 14.28 50.67 13.94L50.67 13.94L50.67 13.94Q50.82 13.61 51.06 13.05L51.06 13.05L51.06 13.05Q51.31 12.49 51.65 11.68L51.65 11.68L51.65 11.68Q52.00 10.86 52.49 9.70L52.49 9.70L52.49 9.70Q52.71 9.18 52.87 8.79L52.87 8.79L52.87 8.79Q53.03 8.40 53.16 8.04L53.16 8.04L53.16 8.04Q53.28 7.69 53.39 7.33L53.39 7.33L53.39 7.33Q53.49 6.97 53.61 6.51L53.61 6.51L53.61 6.51Q52.96 6.73 52.41 7.01L52.41 7.01L52.41 7.01Q51.86 7.28 51.49 7.59L51.49 7.59L51.49 7.59Q51.37 7.50 51.23 7.34L51.23 7.34L51.23 7.34Q51.10 7.17 50.99 6.96L50.99 6.96L50.99 6.96Q50.88 6.76 50.79 6.55L50.79 6.55L50.79 6.55Q50.71 6.34 50.69 6.17L50.69 6.17L50.69 6.17Q51.11 5.89 51.72 5.66L51.72 5.66L51.72 5.66Q52.33 5.42 53.02 5.24L53.02 5.24L53.02 5.24Q53.70 5.07 54.42 4.97L54.42 4.97L54.42 4.97Q55.13 4.87 55.75 4.87L55.75 4.87L55.75 4.87Q57.43 4.87 58.35 5.56L58.35 5.56L58.35 5.56Q59.28 6.26 59.28 7.46ZM55.69 6.02L55.86 6.29L55.86 6.29Q55.76 6.41 55.55 6.79L55.55 6.79L55.55 6.79Q55.34 7.17 55.07 7.69L55.07 7.69L55.07 7.69Q54.80 8.22 54.49 8.83L54.49 8.83L54.49 8.83Q54.19 9.45 53.91 10.05L53.91 10.05L53.91 10.05Q54.96 10.05 55.85 9.86L55.85 9.86L55.85 9.86Q56.73 9.66 57.37 9.30L57.37 9.30L57.37 9.30Q58.02 8.95 58.37 8.46L58.37 8.46L58.37 8.46Q58.73 7.98 58.73 7.39L58.73 7.39L58.73 7.39Q58.73 6.69 58.23 6.32L58.23 6.32L58.23 6.32Q57.72 5.95 56.67 5.95L56.67 5.95L56.67 5.95Q56.43 5.95 56.20 5.97L56.20 5.97L56.20 5.97Q55.96 5.99 55.69 6.02L55.69 6.02ZM66.86 12.43L66.86 12.43L66.86 12.43Q66.86 11.45 67.09 10.51L67.09 10.51L67.09 10.51Q67.33 9.56 67.75 8.71L67.75 8.71L67.75 8.71Q68.17 7.87 68.75 7.16L68.75 7.16L68.75 7.16Q69.33 6.45 70.02 5.94L70.02 5.94L70.02 5.94Q70.71 5.42 71.50 5.13L71.50 5.13L71.50 5.13Q72.28 4.84 73.11 4.84L73.11 4.84L73.11 4.84Q74.07 4.84 74.61 5.25L74.61 5.25L74.61 5.25Q75.15 5.66 75.15 6.38L75.15 6.38L75.15 6.38Q75.15 6.66 75.08 6.96L75.08 6.96L75.08 6.96Q75.00 7.25 74.85 7.54L74.85 7.54L74.85 7.54Q74.70 7.83 74.51 8.09L74.51 8.09L74.51 8.09Q74.31 8.36 74.07 8.55L74.07 8.55L74.07 8.55Q73.71 8.50 73.44 8.22L73.44 8.22L73.44 8.22Q73.18 7.95 73.11 7.59L73.11 7.59L73.11 7.59Q73.60 7.18 73.89 6.74L73.89 6.74L73.89 6.74Q74.17 6.30 74.17 5.94L74.17 5.94L74.17 5.94Q74.17 5.32 73.40 5.32L73.40 5.32L73.40 5.32Q73.08 5.32 72.74 5.45L72.74 5.45L72.74 5.45Q72.39 5.59 72.04 5.82L72.04 5.82L72.04 5.82Q71.69 6.06 71.37 6.40L71.37 6.40L71.37 6.40Q71.04 6.73 70.76 7.14L70.76 7.14L70.76 7.14Q68.81 9.94 68.81 12.87L68.81 12.87L68.81 12.87Q68.81 13.90 69.13 14.53L69.13 14.53L69.13 14.53Q69.45 15.16 69.99 15.27L69.99 15.27L69.99 15.27Q70.59 15.13 71.51 14.50L71.51 14.50L71.51 14.50Q72.44 13.87 73.53 12.87L73.53 12.87L73.53 12.87Q73.67 13.01 73.70 13.16L73.70 13.16L73.70 13.16Q73.29 13.69 72.86 14.18L72.86 14.18L72.86 14.18Q72.42 14.67 72.00 15.08L72.00 15.08L72.00 15.08Q71.57 15.48 71.16 15.79L71.16 15.79L71.16 15.79Q70.74 16.10 70.39 16.27L70.39 16.27L70.39 16.27Q68.66 16.24 67.76 15.27L67.76 15.27L67.76 15.27Q66.86 14.31 66.86 12.43ZM87.21 14.36L87.21 14.36L87.21 14.36Q87.21 13.78 87.40 12.85L87.40 12.85L87.40 12.85Q87.60 11.93 87.92 10.88L87.92 10.88L87.92 10.88Q87.00 10.95 86.07 11.06L86.07 11.06L86.07 11.06Q85.13 11.17 84.45 11.19L84.45 11.19L84.45 11.19Q83.82 12.66 83.45 13.89L83.45 13.89L83.45 13.89Q83.08 15.13 82.87 16.31L82.87 16.31L82.87 16.31Q82.33 16.18 81.98 15.87L81.98 15.87L81.98 15.87Q81.63 15.55 81.34 15.08L81.34 15.08L81.34 15.08Q81.45 14.85 81.60 14.50L81.60 14.50L81.60 14.50Q81.75 14.15 81.95 13.66L81.95 13.66L81.95 13.66Q82.15 13.16 82.41 12.50L82.41 12.50L82.41 12.50Q82.67 11.83 83.01 10.95L83.01 10.95L83.01 10.95Q82.54 10.75 82.39 10.40L82.39 10.40L82.39 10.40Q82.46 10.35 82.71 10.28L82.71 10.28L82.71 10.28Q82.95 10.22 83.31 10.15L83.31 10.15L83.50 9.70L83.50 9.70Q83.79 8.95 83.98 8.43L83.98 8.43L83.98 8.43Q84.17 7.91 84.30 7.41L84.30 7.41L84.30 7.41Q84.43 6.92 84.55 6.31L84.55 6.31L84.55 6.31Q84.67 5.71 84.84 4.79L84.84 4.79L84.84 4.79Q85.43 4.90 85.91 5.31L85.91 5.31L85.91 5.31Q86.39 5.71 86.74 6.29L86.74 6.29L86.74 6.29Q86.62 6.45 86.44 6.79L86.44 6.79L86.44 6.79Q86.25 7.13 86.04 7.59L86.04 7.59L86.04 7.59Q85.82 8.06 85.57 8.64L85.57 8.64L85.57 8.64Q85.32 9.23 85.02 9.87L85.02 9.87L85.02 9.87Q85.89 9.76 86.78 9.66L86.78 9.66L86.78 9.66Q87.67 9.56 88.35 9.52L88.35 9.52L88.35 9.52Q88.61 8.79 88.88 8.10L88.88 8.10L88.88 8.10Q89.15 7.41 89.42 6.83L89.42 6.83L89.42 6.83Q89.68 6.26 89.93 5.82L89.93 5.82L89.93 5.82Q90.17 5.39 90.37 5.18L90.37 5.18L90.37 5.18Q90.51 5.19 90.74 5.29L90.74 5.29L90.74 5.29Q90.97 5.38 91.21 5.50L91.21 5.50L91.21 5.50Q91.45 5.63 91.64 5.78L91.64 5.78L91.64 5.78Q91.84 5.92 91.91 6.05L91.91 6.05L91.91 6.05Q91.66 6.29 91.41 6.66L91.41 6.66L91.41 6.66Q91.15 7.04 90.91 7.53L90.91 7.53L90.91 7.53Q90.66 8.02 90.43 8.60L90.43 8.60L90.43 8.60Q90.19 9.17 89.98 9.79L89.98 9.79L89.98 9.79Q90.26 10.04 90.26 10.42L90.26 10.42L90.26 10.42Q90.26 10.68 90.15 10.91L90.15 10.91L90.15 10.91Q90.02 10.88 89.89 10.87L89.89 10.87L89.89 10.87Q89.77 10.86 89.63 10.85L89.63 10.85L89.63 10.85Q89.39 11.61 89.19 12.35L89.19 12.35L89.19 12.35Q89.00 13.09 88.87 13.76L88.87 13.76L88.87 13.76Q88.73 14.43 88.66 14.99L88.66 14.99L88.66 14.99Q88.58 15.55 88.58 15.93L88.58 15.93L88.58 15.93Q88.58 16.07 88.59 16.16L88.59 16.16L88.59 16.16Q88.59 16.24 88.61 16.30L88.61 16.30L88.61 16.30Q88.30 16.28 88.16 16.19L88.16 16.19L88.16 16.19Q88.02 16.10 87.95 16.00L87.95 16.00L87.95 16.00Q87.88 15.89 87.82 15.79L87.82 15.79L87.82 15.79Q87.77 15.68 87.64 15.62L87.64 15.62L87.64 15.62Q87.54 15.58 87.46 15.43L87.46 15.43L87.46 15.43Q87.37 15.27 87.32 15.08L87.32 15.08L87.32 15.08Q87.26 14.88 87.23 14.69L87.23 14.69L87.23 14.69Q87.21 14.49 87.21 14.36ZM113.90 5.75L113.90 5.75L113.90 5.75Q113.29 6.58 112.78 7.57L112.78 7.57L112.78 7.57Q112.28 8.57 111.92 9.61L111.92 9.61L111.92 9.61Q111.57 10.65 111.38 11.67L111.38 11.67L111.38 11.67Q111.19 12.68 111.19 13.57L111.19 13.57L111.19 13.57Q111.19 14.66 111.51 15.15L111.51 15.15L111.51 15.15Q111.83 15.64 112.62 15.64L112.62 15.64L112.62 15.64Q113.53 15.64 114.21 15.00L114.21 15.00L114.21 15.00Q114.90 14.36 115.50 13.24L115.50 13.24L115.50 13.24Q115.89 12.52 116.17 11.65L116.17 11.65L116.17 11.65Q116.45 10.78 116.63 9.86L116.63 9.86L116.63 9.86Q116.80 8.95 116.89 8.02L116.89 8.02L116.89 8.02Q116.97 7.08 116.97 6.23L116.97 6.23L116.97 6.23Q116.97 5.68 116.96 5.43L116.96 5.43L116.96 5.43Q116.94 5.18 116.91 5.03L116.91 5.03L116.91 5.03Q116.96 5.03 117.12 5.05L117.12 5.05L117.12 5.05Q117.29 5.08 117.51 5.12L117.51 5.12L117.51 5.12Q117.73 5.17 117.94 5.24L117.94 5.24L117.94 5.24Q118.16 5.31 118.31 5.39L118.31 5.39L118.31 5.39Q118.24 6.45 118.06 7.59L118.06 7.59L118.06 7.59Q117.87 8.72 117.56 9.83L117.56 9.83L117.56 9.83Q117.25 10.93 116.84 11.96L116.84 11.96L116.84 11.96Q116.44 12.98 115.93 13.79L115.93 13.79L115.93 13.79Q115.19 14.99 114.27 15.67L114.27 15.67L114.27 15.67Q113.34 16.35 112.08 16.35L112.08 16.35L112.08 16.35Q110.80 16.35 110.08 15.60L110.08 15.60L110.08 15.60Q109.37 14.85 109.37 13.33L109.37 13.33L109.37 13.33Q109.37 12.45 109.56 11.33L109.56 11.33L109.56 11.33Q109.76 10.22 110.09 9.07L110.09 9.07L110.09 9.07Q110.42 7.91 110.85 6.81L110.85 6.81L110.85 6.81Q111.29 5.71 111.76 4.84L111.76 4.84L111.76 4.84Q112 4.86 112.32 4.94L112.32 4.94L112.32 4.94Q112.64 5.03 112.95 5.16L112.95 5.16L112.95 5.16Q113.26 5.29 113.52 5.45L113.52 5.45L113.52 5.45Q113.78 5.61 113.90 5.75ZM126.53 16.24L126.53 16.24L126.53 16.24Q125.73 16.00 125.45 15.79L125.45 15.79L125.45 15.79Q125.17 15.57 125.17 15.19L125.17 15.19L125.17 15.19Q125.17 14.77 125.37 14.01L125.37 14.01L125.37 14.01Q125.57 13.24 125.88 12.31L125.88 12.31L125.88 12.31Q126.20 11.37 126.60 10.35L126.60 10.35L126.60 10.35Q127.01 9.32 127.43 8.39L127.43 8.39L127.43 8.39Q127.85 7.45 128.25 6.67L128.25 6.67L128.25 6.67Q128.65 5.89 128.95 5.46L128.95 5.46L128.86 4.87L128.86 4.87Q129.05 4.87 129.40 4.97L129.40 4.97L129.40 4.97Q129.75 5.07 130.11 5.21L130.11 5.21L130.11 5.21Q130.47 5.35 130.74 5.49L130.74 5.49L130.74 5.49Q131.01 5.64 131.04 5.74L131.04 5.74L131.04 5.74Q130.97 6.08 130.93 6.76L130.93 6.76L130.93 6.76Q130.89 7.43 130.89 8.20L130.89 8.20L130.89 8.20Q130.89 9.73 131.00 11.19L131.00 11.19L131.00 11.19Q131.12 12.66 131.56 14.17L131.56 14.17L131.56 14.17Q131.78 13.05 132.04 11.94L132.04 11.94L132.04 11.94Q132.30 10.82 132.58 9.81L132.58 9.81L132.58 9.81Q132.86 8.79 133.14 7.92L133.14 7.92L133.14 7.92Q133.42 7.06 133.68 6.40L133.68 6.40L133.68 6.40Q133.94 5.75 134.16 5.38L134.16 5.38L134.16 5.38Q134.39 5.01 134.57 4.98L134.57 4.98L134.57 4.98Q134.72 5.01 134.90 5.10L134.90 5.10L134.90 5.10Q135.09 5.19 135.25 5.32L135.25 5.32L135.25 5.32Q135.42 5.45 135.56 5.60L135.56 5.60L135.56 5.60Q135.70 5.75 135.79 5.91L135.79 5.91L135.79 5.91Q135.34 6.09 134.90 6.76L134.90 6.76L134.90 6.76Q134.46 7.43 134.06 8.39L134.06 8.39L134.06 8.39Q133.66 9.35 133.31 10.47L133.31 10.47L133.31 10.47Q132.97 11.59 132.71 12.68L132.71 12.68L132.71 12.68Q132.45 13.76 132.31 14.69L132.31 14.69L132.31 14.69Q132.16 15.61 132.15 16.17L132.15 16.17L132.15 16.17Q132.15 16.20 132.16 16.21L132.16 16.21L132.16 16.21Q132.12 16.23 132.07 16.23L132.07 16.23L132.07 16.23Q132.02 16.23 131.98 16.23L131.98 16.23L131.98 16.23Q131.33 16.23 130.84 16.07L130.84 16.07L130.84 16.07Q130.34 15.90 130.19 15.61L130.19 15.61L130.19 15.61Q129.89 14.43 129.70 13.34L129.70 13.34L129.70 13.34Q129.50 12.25 129.37 11.16L129.37 11.16L129.37 11.16Q129.23 10.07 129.16 8.95L129.16 8.95L129.16 8.95Q129.08 7.84 129.04 6.62L129.04 6.62L129.04 6.62Q128.77 7.04 128.48 7.72L128.48 7.72L128.48 7.72Q128.18 8.40 127.90 9.21L127.90 9.21L127.90 9.21Q127.62 10.02 127.36 10.92L127.36 10.92L127.36 10.92Q127.11 11.82 126.91 12.67L126.91 12.67L126.91 12.67Q126.71 13.52 126.60 14.29L126.60 14.29L126.60 14.29Q126.49 15.05 126.49 15.61L126.49 15.61L126.49 15.61Q126.49 15.90 126.50 16.03L126.50 16.03L126.50 16.03Q126.50 16.16 126.53 16.24ZM147.06 14.38L147.06 14.38L147.06 14.38Q147.41 14.98 147.41 15.54L147.41 15.54L147.41 15.54Q147.41 15.67 147.38 15.77L147.38 15.77L147.38 15.77Q147.36 15.88 147.34 15.99L147.34 15.99L147.34 15.99Q147.10 15.96 146.84 15.95L146.84 15.95L146.84 15.95Q146.58 15.93 146.30 15.93L146.30 15.93L146.30 15.93Q145.96 15.93 145.62 15.95L145.62 15.95L145.62 15.95Q145.28 15.97 144.86 16.02L144.86 16.02L144.86 16.02Q144.44 16.06 143.92 16.13L143.92 16.13L143.92 16.13Q143.40 16.20 142.72 16.31L142.72 16.31L142.72 16.31Q142.39 16.20 142.07 15.87L142.07 15.87L142.07 15.87Q141.75 15.54 141.47 15.08L141.47 15.08L141.47 15.08Q141.61 14.77 141.82 14.31L141.82 14.31L141.82 14.31Q142.03 13.86 142.31 13.21L142.31 13.21L142.31 13.21Q142.59 12.56 142.93 11.68L142.93 11.68L142.93 11.68Q143.28 10.81 143.67 9.66L143.67 9.66L143.67 9.66Q143.92 8.90 144.10 8.33L144.10 8.33L144.10 8.33Q144.28 7.76 144.43 7.22L144.43 7.22L144.43 7.22Q144.58 6.68 144.72 6.09L144.72 6.09L144.72 6.09Q144.86 5.50 145.03 4.73L145.03 4.73L145.03 4.73Q145.59 4.84 146.00 5.14L146.00 5.14L146.00 5.14Q146.41 5.45 146.79 6.01L146.79 6.01L146.79 6.01Q146.68 6.19 146.50 6.59L146.50 6.59L146.50 6.59Q146.31 7 146.07 7.58L146.07 7.58L146.07 7.58Q145.82 8.16 145.53 8.90L145.53 8.90L145.53 8.90Q145.24 9.63 144.91 10.47L144.91 10.47L144.91 10.47Q144.61 11.30 144.31 12.03L144.31 12.03L144.31 12.03Q144.02 12.75 143.79 13.34L143.79 13.34L143.79 13.34Q143.56 13.93 143.42 14.35L143.42 14.35L143.42 14.35Q143.28 14.77 143.28 14.98L143.28 14.98L143.28 14.98Q143.50 14.97 143.68 14.95L143.68 14.95L143.68 14.95Q143.86 14.94 144.06 14.90L144.06 14.90L144.06 14.90Q144.26 14.87 144.49 14.82L144.49 14.82L144.49 14.82Q144.72 14.77 145.04 14.69L145.04 14.69L145.04 14.69Q145.32 14.62 145.56 14.57L145.56 14.57L145.56 14.57Q145.80 14.52 146.03 14.48L146.03 14.48L146.03 14.48Q146.26 14.45 146.50 14.43L146.50 14.43L146.50 14.43Q146.75 14.41 147.06 14.38ZM156.02 14.38L156.02 14.38L156.02 14.38Q156.02 13.87 156.18 13.07L156.18 13.07L156.18 13.07Q156.34 12.26 156.60 11.33L156.60 11.33L156.60 11.33Q156.86 10.40 157.19 9.43L157.19 9.43L157.19 9.43Q157.53 8.46 157.88 7.60L157.88 7.60L157.88 7.60Q158.23 6.75 158.56 6.10L158.56 6.10L158.56 6.10Q158.90 5.46 159.17 5.18L159.17 5.18L159.17 5.18Q159.31 5.19 159.54 5.29L159.54 5.29L159.54 5.29Q159.77 5.38 160.01 5.50L160.01 5.50L160.01 5.50Q160.24 5.63 160.44 5.78L160.44 5.78L160.44 5.78Q160.64 5.92 160.69 6.05L160.69 6.05L160.69 6.05Q160.29 6.41 159.89 7.15L159.89 7.15L159.89 7.15Q159.49 7.88 159.12 8.82L159.12 8.82L159.12 8.82Q158.75 9.76 158.42 10.80L158.42 10.80L158.42 10.80Q158.10 11.84 157.86 12.82L157.86 12.82L157.86 12.82Q157.63 13.80 157.49 14.64L157.49 14.64L157.49 14.64Q157.36 15.48 157.36 16.00L157.36 16.00L157.36 16.00Q157.36 16.24 157.40 16.30L157.40 16.30L157.40 16.30Q157.09 16.28 156.95 16.19L156.95 16.19L156.95 16.19Q156.81 16.10 156.74 16.00L156.74 16.00L156.74 16.00Q156.66 15.89 156.60 15.79L156.60 15.79L156.60 15.79Q156.53 15.68 156.41 15.62L156.41 15.62L156.41 15.62Q156.31 15.58 156.24 15.43L156.24 15.43L156.24 15.43Q156.17 15.27 156.12 15.09L156.12 15.09L156.12 15.09Q156.07 14.90 156.04 14.70L156.04 14.70L156.04 14.70Q156.02 14.50 156.02 14.38ZM172.79 16.21L172.79 16.21L172.79 16.21Q172.76 16.23 172.73 16.23L172.73 16.23L172.73 16.23Q172.70 16.23 172.62 16.23L172.62 16.23L172.62 16.23Q172.42 16.23 172.16 16.16L172.16 16.16L172.16 16.16Q171.91 16.10 171.66 16.01L171.66 16.01L171.66 16.01Q171.42 15.92 171.24 15.81L171.24 15.81L171.24 15.81Q171.07 15.69 171.02 15.61L171.02 15.61L171.02 15.61Q171.01 15.41 171.01 15.20L171.01 15.20L171.01 15.20Q171.01 14.99 171.01 14.80L171.01 14.80L171.01 14.80Q171.01 13.23 171.24 11.52L171.24 11.52L171.24 11.52Q171.47 9.81 172.00 7.83L172.00 7.83L172.00 7.83Q172.06 7.63 172.12 7.33L172.12 7.33L172.12 7.33Q172.19 7.03 172.26 6.68L172.26 6.68L172.26 6.68Q171.92 6.94 171.46 7.53L171.46 7.53L171.46 7.53Q171.00 8.11 170.48 8.90L170.48 8.90L170.48 8.90Q169.97 9.69 169.46 10.63L169.46 10.63L169.46 10.63Q168.95 11.58 168.53 12.55L168.53 12.55L168.53 12.55Q168.11 13.52 167.81 14.48L167.81 14.48L167.81 14.48Q167.51 15.43 167.44 16.24L167.44 16.24L167.44 16.24Q166.77 16.04 166.51 15.85L166.51 15.85L166.51 15.85Q166.25 15.65 166.25 15.37L166.25 15.37L166.25 15.37Q166.25 15.12 166.40 14.66L166.40 14.66L166.40 14.66Q166.56 14.20 166.84 13.57L166.84 13.57L166.84 13.57Q167.12 12.94 167.52 12.16L167.52 12.16L167.52 12.16Q167.93 11.38 168.42 10.49L168.42 10.49L168.42 10.49Q168.98 9.46 169.52 8.57L169.52 8.57L169.52 8.57Q170.06 7.67 170.58 6.94L170.58 6.94L170.58 6.94Q171.09 6.22 171.59 5.68L171.59 5.68L171.59 5.68Q172.09 5.15 172.58 4.87L172.58 4.87L172.58 4.87Q172.77 4.87 173.10 4.97L173.10 4.97L173.10 4.97Q173.43 5.07 173.75 5.21L173.75 5.21L173.75 5.21Q174.06 5.35 174.31 5.49L174.31 5.49L174.31 5.49Q174.55 5.64 174.58 5.74L174.58 5.74L174.58 5.74Q174.38 6.13 174.12 6.92L174.12 6.92L174.12 6.92Q173.85 7.70 173.58 8.69L173.58 8.69L173.58 8.69Q173.31 9.69 173.06 10.80L173.06 10.80L173.06 10.80Q172.82 11.91 172.68 12.94L172.68 12.94L172.68 12.94Q173.00 12.17 173.42 11.33L173.42 11.33L173.42 11.33Q173.85 10.50 174.33 9.68L174.33 9.68L174.33 9.68Q174.80 8.86 175.30 8.09L175.30 8.09L175.30 8.09Q175.80 7.32 176.27 6.69L176.27 6.69L176.27 6.69Q176.75 6.05 177.16 5.57L177.16 5.57L177.16 5.57Q177.58 5.10 177.90 4.87L177.90 4.87L177.90 4.87Q178.09 4.87 178.42 4.97L178.42 4.97L178.42 4.97Q178.75 5.07 179.07 5.21L179.07 5.21L179.07 5.21Q179.38 5.35 179.63 5.49L179.63 5.49L179.63 5.49Q179.87 5.64 179.90 5.74L179.90 5.74L179.90 5.74Q179.45 6.54 179.12 7.69L179.12 7.69L179.12 7.69Q178.78 8.83 178.55 10.09L178.55 10.09L178.55 10.09Q178.32 11.35 178.20 12.59L178.20 12.59L178.20 12.59Q178.08 13.83 178.08 14.81L178.08 14.81L178.08 14.81Q178.08 15.13 178.08 15.48L178.08 15.48L178.08 15.48Q178.08 15.83 178.11 16.21L178.11 16.21L178.11 16.21Q177.91 16.21 177.64 16.16L177.64 16.16L177.64 16.16Q177.37 16.11 177.11 16.03L177.11 16.03L177.11 16.03Q176.85 15.95 176.64 15.84L176.64 15.84L176.64 15.84Q176.43 15.74 176.34 15.61L176.34 15.61L176.34 15.61Q176.33 15.41 176.33 15.20L176.33 15.20L176.33 15.20Q176.33 14.99 176.33 14.80L176.33 14.80L176.33 14.80Q176.33 13.23 176.56 11.52L176.56 11.52L176.56 11.52Q176.79 9.81 177.32 7.83L177.32 7.83L177.32 7.83Q177.38 7.63 177.45 7.29L177.45 7.29L177.45 7.29Q177.52 6.96 177.59 6.59L177.59 6.59L177.59 6.59Q177.20 6.79 176.70 7.34L176.70 7.34L176.70 7.34Q176.20 7.90 175.69 8.69L175.69 8.69L175.69 8.69Q175.18 9.48 174.68 10.44L174.68 10.44L174.68 10.44Q174.19 11.41 173.79 12.41L173.79 12.41L173.79 12.41Q173.39 13.41 173.12 14.40L173.12 14.40L173.12 14.40Q172.84 15.39 172.79 16.21ZM187.53 14.38L187.53 14.38L187.53 14.38Q187.53 13.87 187.69 13.07L187.69 13.07L187.69 13.07Q187.85 12.26 188.11 11.33L188.11 11.33L188.11 11.33Q188.37 10.40 188.71 9.43L188.71 9.43L188.71 9.43Q189.04 8.46 189.39 7.60L189.39 7.60L189.39 7.60Q189.74 6.75 190.08 6.10L190.08 6.10L190.08 6.10Q190.41 5.46 190.68 5.18L190.68 5.18L190.68 5.18Q190.82 5.19 191.05 5.29L191.05 5.29L191.05 5.29Q191.28 5.38 191.52 5.50L191.52 5.50L191.52 5.50Q191.76 5.63 191.95 5.78L191.95 5.78L191.95 5.78Q192.15 5.92 192.21 6.05L192.21 6.05L192.21 6.05Q191.80 6.41 191.40 7.15L191.40 7.15L191.40 7.15Q191.00 7.88 190.63 8.82L190.63 8.82L190.63 8.82Q190.26 9.76 189.94 10.80L189.94 10.80L189.94 10.80Q189.62 11.84 189.38 12.82L189.38 12.82L189.38 12.82Q189.14 13.80 189.01 14.64L189.01 14.64L189.01 14.64Q188.87 15.48 188.87 16.00L188.87 16.00L188.87 16.00Q188.87 16.24 188.92 16.30L188.92 16.30L188.92 16.30Q188.61 16.28 188.47 16.19L188.47 16.19L188.47 16.19Q188.33 16.10 188.25 16.00L188.25 16.00L188.25 16.00Q188.17 15.89 188.11 15.79L188.11 15.79L188.11 15.79Q188.05 15.68 187.92 15.62L187.92 15.62L187.92 15.62Q187.82 15.58 187.75 15.43L187.75 15.43L187.75 15.43Q187.68 15.27 187.63 15.09L187.63 15.09L187.63 15.09Q187.59 14.90 187.56 14.70L187.56 14.70L187.56 14.70Q187.53 14.50 187.53 14.38ZM201.29 6.69L201.29 6.69L201.29 6.69Q200.73 6.69 200.43 6.38L200.43 6.38L200.43 6.38Q200.13 6.06 200.13 5.61L200.13 5.61L200.13 5.61Q200.13 5.50 200.16 5.35L200.16 5.35L200.16 5.35Q200.20 5.19 200.26 5.08L200.26 5.08L200.26 5.08Q200.44 5.17 200.79 5.20L200.79 5.20L200.79 5.20Q201.15 5.24 201.63 5.24L201.63 5.24L201.63 5.24Q202.34 5.24 203.24 5.17L203.24 5.17L203.24 5.17Q204.15 5.11 204.97 5.04L204.97 5.04L204.97 5.04Q205.80 4.97 206.43 4.91L206.43 4.91L206.43 4.91Q207.06 4.84 207.24 4.84L207.24 4.84L207.24 4.84Q207.76 4.84 207.99 5.23L207.99 5.23L207.99 5.23Q208.22 5.61 208.33 6.26L208.33 6.26L208.33 6.26Q207.97 6.23 207.61 6.21L207.61 6.21L207.61 6.21Q207.26 6.19 207.00 6.19L207.00 6.19L207.00 6.19Q206.56 6.19 206.10 6.22L206.10 6.22L206.10 6.22Q205.65 6.24 205.18 6.30L205.18 6.30L205.18 6.30Q204.99 6.71 204.75 7.26L204.75 7.26L204.75 7.26Q204.51 7.81 204.28 8.41L204.28 8.41L204.28 8.41Q204.05 9.02 203.84 9.61L203.84 9.61L203.84 9.61Q203.63 10.21 203.48 10.68L203.48 10.68L203.48 10.68Q203.17 11.61 202.94 12.39L202.94 12.39L202.94 12.39Q202.71 13.17 202.53 13.85L202.53 13.85L202.53 13.85Q202.36 14.53 202.23 15.15L202.23 15.15L202.23 15.15Q202.10 15.76 202.01 16.35L202.01 16.35L202.01 16.35Q201.07 16.21 200.44 15.18L200.44 15.18L200.44 15.18Q200.55 14.74 200.71 14.23L200.71 14.23L200.71 14.23Q200.87 13.72 201.09 13.07L201.09 13.07L201.09 13.07Q201.31 12.42 201.60 11.59L201.60 11.59L201.60 11.59Q201.89 10.77 202.27 9.72L202.27 9.72L202.27 9.72Q202.41 9.32 202.57 8.90L202.57 8.90L202.57 8.90Q202.72 8.47 202.87 8.05L202.87 8.05L202.87 8.05Q203.01 7.63 203.13 7.24L203.13 7.24L203.13 7.24Q203.25 6.85 203.34 6.52L203.34 6.52L203.34 6.52Q202.75 6.59 202.22 6.64L202.22 6.64L202.22 6.64Q201.70 6.69 201.29 6.69ZM219.53 9.21L219.53 9.21L219.53 9.21Q220.00 9.21 220.25 9.46L220.25 9.46L220.25 9.46Q220.51 9.72 220.51 10.16L220.51 10.16L220.51 10.16Q220.51 10.28 220.49 10.39L220.49 10.39L220.49 10.39Q220.47 10.51 220.44 10.60L220.44 10.60L220.44 10.60Q220.26 10.57 220.04 10.55L220.04 10.55L220.04 10.55Q219.81 10.53 219.51 10.53L219.51 10.53L219.51 10.53Q218.90 10.53 218.29 10.63L218.29 10.63L218.29 10.63Q217.67 10.74 217.11 10.81L217.11 10.81L217.11 10.81Q216.79 11.55 216.52 12.24L216.52 12.24L216.52 12.24Q216.26 12.94 216.07 13.51L216.07 13.51L216.07 13.51Q215.88 14.08 215.77 14.50L215.77 14.50L215.77 14.50Q215.67 14.92 215.66 15.13L215.66 15.13L215.66 15.13Q216.79 14.90 217.94 14.73L217.94 14.73L217.94 14.73Q219.10 14.56 220.37 14.48L220.37 14.48L220.37 14.48Q220.53 14.71 220.63 14.99L220.63 14.99L220.63 14.99Q220.74 15.27 220.74 15.60L220.74 15.60L220.74 15.60Q220.74 15.68 220.74 15.78L220.74 15.78L220.74 15.78Q220.74 15.88 220.71 15.97L220.71 15.97L220.71 15.97Q220.32 15.96 219.88 15.95L219.88 15.95L219.88 15.95Q219.45 15.95 218.75 15.95L218.75 15.95L218.75 15.95Q218.29 15.95 217.87 15.97L217.87 15.97L217.87 15.97Q217.46 15.99 217.04 16.03L217.04 16.03L217.04 16.03Q216.62 16.07 216.15 16.14L216.15 16.14L216.15 16.14Q215.68 16.21 215.10 16.31L215.10 16.31L215.10 16.31Q214.45 16.06 213.85 15.08L213.85 15.08L213.85 15.08Q214.09 14.57 214.51 13.54L214.51 13.54L214.51 13.54Q214.94 12.52 215.60 10.79L215.60 10.79L215.60 10.79Q214.97 10.60 214.77 10.09L214.77 10.09L214.77 10.09Q214.84 10.02 215.18 9.92L215.18 9.92L215.18 9.92Q215.52 9.81 216.01 9.70L216.01 9.70L216.01 9.70Q216.22 9.16 216.36 8.75L216.36 8.75L216.36 8.75Q216.51 8.34 216.62 7.99L216.62 7.99L216.62 7.99Q216.73 7.63 216.82 7.29L216.82 7.29L216.82 7.29Q216.92 6.94 217.00 6.54L217.00 6.54L217.00 6.54Q216.51 6.51 216.23 6.27L216.23 6.27L216.23 6.27Q215.95 6.02 215.95 5.63L215.95 5.63L215.95 5.63Q215.95 5.52 215.98 5.36L215.98 5.36L215.98 5.36Q216.02 5.21 216.06 5.10L216.06 5.10L216.06 5.10Q216.34 5.14 216.60 5.15L216.60 5.15L216.60 5.15Q216.86 5.17 217.28 5.17L217.28 5.17L217.28 5.17Q218.16 5.17 218.93 5.12L218.93 5.12L218.93 5.12Q219.70 5.07 220.32 5.01L220.32 5.01L220.32 5.01Q220.95 4.96 221.40 4.91L221.40 4.91L221.40 4.91Q221.84 4.86 222.08 4.86L222.08 4.86L222.08 4.86Q222.40 4.86 222.66 5.19L222.66 5.19L222.66 5.19Q222.91 5.53 223.03 6.15L223.03 6.15L223.03 6.15Q222.60 6.10 222.33 6.09L222.33 6.09L222.33 6.09Q222.05 6.08 221.84 6.08L221.84 6.08L221.84 6.08Q221.07 6.08 220.44 6.15L220.44 6.15L220.44 6.15Q219.80 6.23 219.21 6.31L219.21 6.31L219.21 6.31Q219.13 6.44 219.02 6.64L219.02 6.64L219.02 6.64Q218.92 6.83 218.75 7.18L218.75 7.18L218.75 7.18Q218.58 7.53 218.34 8.06L218.34 8.06L218.34 8.06Q218.09 8.60 217.74 9.39L217.74 9.39L217.74 9.39Q218.27 9.31 218.74 9.26L218.74 9.26L218.74 9.26Q219.21 9.21 219.53 9.21ZM230.22 14.45L230.22 14.45L230.22 14.45Q230.43 13.99 230.72 13.26L230.72 13.26L230.72 13.26Q231.01 12.53 231.34 11.68L231.34 11.68L231.34 11.68Q231.66 10.84 231.99 9.95L231.99 9.95L231.99 9.95Q232.33 9.06 232.62 8.26L232.62 8.26L232.62 8.26Q232.92 7.46 233.13 6.83L233.13 6.83L233.13 6.83Q233.35 6.20 233.45 5.87L233.45 5.87L233.45 5.87Q232.57 6.23 231.94 6.97L231.94 6.97L231.94 6.97Q231.31 7.71 230.99 8.83L230.99 8.83L230.99 8.83Q230.66 8.72 230.40 8.43L230.40 8.43L230.40 8.43Q230.13 8.15 230.05 7.71L230.05 7.71L230.05 7.71Q230.19 7.07 230.57 6.54L230.57 6.54L230.57 6.54Q230.96 6.01 231.55 5.63L231.55 5.63L231.55 5.63Q232.13 5.25 232.90 5.05L232.90 5.05L232.90 5.05Q233.67 4.84 234.56 4.84L234.56 4.84L234.56 4.84Q235.68 4.84 236.61 5.17L236.61 5.17L236.61 5.17Q237.55 5.50 238.22 6.09L238.22 6.09L238.22 6.09Q238.90 6.68 239.27 7.50L239.27 7.50L239.27 7.50Q239.65 8.33 239.65 9.34L239.65 9.34L239.65 9.34Q239.65 10.71 239.15 11.96L239.15 11.96L239.15 11.96Q238.64 13.20 237.78 14.15L237.78 14.15L237.78 14.15Q236.92 15.11 235.79 15.67L235.79 15.67L235.79 15.67Q234.65 16.24 233.41 16.24L233.41 16.24L233.41 16.24Q232.26 16.24 231.44 15.79L231.44 15.79L231.44 15.79Q230.62 15.33 230.22 14.45ZM235.16 5.54L235.16 5.54L235.16 5.54Q234.46 5.54 233.83 5.74L233.83 5.74L233.83 5.74Q234.44 5.96 234.85 6.21L234.85 6.21L234.85 6.21Q235.26 6.45 235.41 6.59L235.41 6.59L235.41 6.59Q235.30 6.75 235.08 7.14L235.08 7.14L235.08 7.14Q234.86 7.53 234.58 8.09L234.58 8.09L234.58 8.09Q234.29 8.65 233.97 9.32L233.97 9.32L233.97 9.32Q233.65 9.98 233.34 10.68L233.34 10.68L233.34 10.68Q232.54 12.46 232.18 13.48L232.18 13.48L232.18 13.48Q231.83 14.50 231.83 14.90L231.83 14.90L231.83 14.90Q232.02 14.97 232.30 14.99L232.30 14.99L232.30 14.99Q232.58 15.02 232.90 15.02L232.90 15.02L232.90 15.02Q234.04 15.02 235.05 14.50L235.05 14.50L235.05 14.50Q236.07 13.97 236.83 13.09L236.83 13.09L236.83 13.09Q237.59 12.21 238.03 11.04L238.03 11.04L238.03 11.04Q238.48 9.87 238.48 8.58L238.48 8.58L238.48 8.58Q238.48 7.14 237.58 6.34L237.58 6.34L237.58 6.34Q236.68 5.54 235.16 5.54Z"></path></g></svg>