<svg data-v-423bf9ae="" xmlns="http://www.w3.org/2000/svg" viewBox="0 0 773 90" class="iconLeftSlogan"><!----><!----><!----><g data-v-423bf9ae="" id="44cb4bd0-f71b-4b7d-be73-9c7b780ff969" fill="white" transform="matrix(4.531722132721215,0,0,4.531722132721215,105.23982348909175,-18.987915518571953)"><path d="M10.33 4.20L10.33 4.20Q11.12 4.27 11.45 4.68L11.45 4.68L11.45 4.68Q11.79 5.10 11.79 5.82L11.79 5.82L11.79 5.82Q11.79 6.54 11.33 9.70L11.33 9.70L11.33 9.70Q10.86 12.87 10.86 14.13L10.86 14.13L10.86 14.13Q10.86 15.40 11.06 15.86L11.06 15.86L11.06 15.86Q10.14 15.55 9.78 15.04L9.78 15.04L9.78 15.04Q9.42 14.52 9.42 13.80L9.42 13.80L9.42 13.80Q9.42 13.09 9.74 10.79L9.74 10.79L9.74 10.79Q10.05 8.50 10.15 7.29L10.15 7.29L10.15 7.29Q9.58 8.40 8.24 10.43L8.24 10.43L8.24 10.43Q6.90 12.46 6.69 12.80L6.69 12.80L6.69 12.80Q6.36 12.99 5.99 12.99L5.99 12.99L5.99 12.99Q5.33 12.99 5.25 12.75L5.25 12.75L5.25 12.75Q5.10 12.36 4.77 11.50L4.77 11.50L4.77 11.50Q4.44 10.64 4.23 10.09L4.23 10.09L4.23 10.09Q3.61 8.55 3.12 7.50L3.12 7.50L3.12 7.50Q3.11 7.60 2.78 10.20L2.78 10.20L2.78 10.20Q2.45 12.80 2.45 14.34L2.45 14.34L2.45 14.34Q2.45 14.77 2.51 15.50L2.51 15.50L2.51 15.50Q1.05 15.50 1.05 14.62L1.05 14.62L1.05 14.62Q1.05 14.49 1.59 10.82L1.59 10.82L1.59 10.82Q2.13 7.14 2.13 5.70L2.13 5.70L2.13 5.63L2.13 5.63Q1.72 4.97 1.27 4.55L1.27 4.55L1.27 4.55Q1.61 4.19 2.10 4.19L2.10 4.19L2.10 4.19Q3.05 4.19 3.63 5.26L3.63 5.26L3.63 5.26Q4.21 6.33 6.22 11.61L6.22 11.61L6.22 11.61Q6.26 11.69 6.27 11.73L6.27 11.73L6.27 11.73Q6.40 11.54 6.96 10.72L6.96 10.72L6.96 10.72Q7.52 9.91 7.81 9.47L7.81 9.47L7.81 9.47Q8.09 9.03 8.60 8.21L8.60 8.21L8.60 8.21Q9.10 7.39 9.38 6.80L9.38 6.80L9.38 6.80Q10.16 5.21 10.33 4.20L10.33 4.20ZM16.07 9.95L16.07 9.95L16.07 9.95Q15.67 10.65 15.45 11.39L15.45 11.39L15.45 11.39Q15.23 12.12 15.23 12.80L15.23 12.80L15.23 12.80Q15.23 13.47 15.53 13.94L15.53 13.94L15.53 13.94Q15.83 14.41 16.39 14.41L16.39 14.41L16.39 14.41Q17.18 14.41 17.86 13.55L17.86 13.55L17.86 13.55Q18.55 12.68 18.92 11.46L18.92 11.46L18.92 11.46Q19.29 10.23 19.29 9.19L19.29 9.19L19.29 9.19Q19.29 8.15 19.21 7.48L19.21 7.48L19.21 7.48Q19.54 7.45 19.63 7.45L19.63 7.45L19.63 7.45Q20.82 7.45 20.82 8.67L20.82 8.67L20.82 8.67Q20.82 8.93 20.48 10.83L20.48 10.83L20.48 10.83Q20.15 12.73 20.15 13.87L20.15 13.87L20.15 13.87Q20.15 15.01 20.58 15.89L20.58 15.89L20.58 15.89Q19.70 15.71 19.30 15.11L19.30 15.11L19.30 15.11Q18.90 14.52 18.90 13.40L18.90 13.40L18.90 13.40Q18.90 13.20 18.96 12.64L18.96 12.64L18.96 12.64Q18.58 13.97 17.63 14.78L17.63 14.78L17.63 14.78Q16.67 15.60 15.76 15.60L15.76 15.60L15.76 15.60Q14.84 15.60 14.28 14.90L14.28 14.90L14.28 14.90Q13.72 14.21 13.72 12.99L13.72 12.99L13.72 12.99Q13.72 11.76 14.18 10.59L14.18 10.59L14.18 10.59Q14.63 9.42 15.55 8.57L15.55 8.57L15.55 8.57Q16.46 7.71 17.60 7.71L17.60 7.71L17.60 7.71Q18.09 7.71 18.68 7.91L18.68 7.91L18.68 7.91Q17.85 8.12 17.16 8.68L17.16 8.68L17.16 8.68Q16.48 9.24 16.07 9.95ZM29.47 9.34L29.47 9.34L29.47 9.34Q29.47 9.98 29.20 11.61L29.20 11.61L29.20 11.61Q28.92 13.24 28.92 13.99L28.92 13.99L28.92 13.99Q28.92 14.73 29.11 15.06L29.11 15.06L29.11 15.06Q29.29 15.39 29.72 15.62L29.72 15.62L29.72 15.62Q29.54 15.64 29.20 15.64L29.20 15.64L29.20 15.64Q28.25 15.64 27.85 15.28L27.85 15.28L27.85 15.28Q27.45 14.92 27.45 14L27.45 14L27.45 14Q27.45 13.48 27.73 11.91L27.73 11.91L27.73 11.91Q28.01 10.33 28.01 9.59L28.01 9.59L28.01 9.59Q28.01 8.67 27.45 8.67L27.45 8.67L27.45 8.67Q26.56 8.67 25.60 10.25L25.60 10.25L25.60 10.25Q24.64 11.83 24.64 14.06L24.64 14.06L24.64 14.06Q24.64 14.94 24.72 15.43L24.72 15.43L24.72 15.43Q24.36 15.46 24.29 15.46L24.29 15.46L24.29 15.46Q23.06 15.46 23.06 14.25L23.06 14.25L23.06 14.25Q23.06 13.97 23.35 12.10L23.35 12.10L23.35 12.10Q23.65 10.22 23.65 9.11L23.65 9.11L23.65 9.11Q23.65 7.99 23.41 7.06L23.41 7.06L23.41 7.06Q24.23 7.38 24.56 7.97L24.56 7.97L24.56 7.97Q24.89 8.57 24.89 9.33L24.89 9.33L24.89 9.33Q24.89 10.09 24.72 11.10L24.72 11.10L24.72 11.10Q25.19 9.52 26.17 8.44L26.17 8.44L26.17 8.44Q27.16 7.35 28.01 7.35L28.01 7.35L28.01 7.35Q29.47 7.35 29.47 9.34ZM33.73 9.95L33.73 9.95L33.73 9.95Q33.32 10.65 33.10 11.39L33.10 11.39L33.10 11.39Q32.89 12.12 32.89 12.80L32.89 12.80L32.89 12.80Q32.89 13.47 33.19 13.94L33.19 13.94L33.19 13.94Q33.49 14.41 34.05 14.41L34.05 14.41L34.05 14.41Q34.83 14.41 35.52 13.55L35.52 13.55L35.52 13.55Q36.20 12.68 36.58 11.46L36.58 11.46L36.58 11.46Q36.95 10.23 36.95 9.19L36.95 9.19L36.95 9.19Q36.95 8.15 36.86 7.48L36.86 7.48L36.86 7.48Q37.20 7.45 37.28 7.45L37.28 7.45L37.28 7.45Q38.47 7.45 38.47 8.67L38.47 8.67L38.47 8.67Q38.47 8.93 38.14 10.83L38.14 10.83L38.14 10.83Q37.80 12.73 37.80 13.87L37.80 13.87L37.80 13.87Q37.80 15.01 38.23 15.89L38.23 15.89L38.23 15.89Q37.35 15.71 36.95 15.11L36.95 15.11L36.95 15.11Q36.55 14.52 36.55 13.40L36.55 13.40L36.55 13.40Q36.55 13.20 36.61 12.64L36.61 12.64L36.61 12.64Q36.23 13.97 35.28 14.78L35.28 14.78L35.28 14.78Q34.33 15.60 33.41 15.60L33.41 15.60L33.41 15.60Q32.49 15.60 31.93 14.90L31.93 14.90L31.93 14.90Q31.37 14.21 31.37 12.99L31.37 12.99L31.37 12.99Q31.37 11.76 31.83 10.59L31.83 10.59L31.83 10.59Q32.28 9.42 33.20 8.57L33.20 8.57L33.20 8.57Q34.12 7.71 35.25 7.71L35.25 7.71L35.25 7.71Q35.74 7.71 36.33 7.91L36.33 7.91L36.33 7.91Q35.50 8.12 34.82 8.68L34.82 8.68L34.82 8.68Q34.13 9.24 33.73 9.95ZM43.49 8.04L43.49 8.04L43.49 8.04Q43.02 8.04 42.65 8.33L42.65 8.33L42.65 8.33Q42.28 8.62 42.28 9.14L42.28 9.14L42.28 9.14Q42.28 9.65 42.62 10.09L42.62 10.09L42.62 10.09Q42.97 10.54 43.46 10.89L43.46 10.89L43.46 10.89Q43.95 11.24 44.45 11.61L44.45 11.61L44.45 11.61Q45.63 12.47 45.63 13.47L45.63 13.47L45.63 13.47Q45.63 14.46 44.83 15.09L44.83 15.09L44.83 15.09Q44.03 15.71 42.79 15.71L42.79 15.71L42.79 15.71Q41.55 15.71 40.87 15.22L40.87 15.22L40.87 15.22Q40.19 14.73 40.19 14.06L40.19 14.06L40.19 14.06Q40.19 13.40 40.53 13.02L40.53 13.02L40.53 13.02Q40.87 12.64 41.34 12.64L41.34 12.64L41.34 12.64Q41.59 12.64 41.82 12.75L41.82 12.75L41.82 12.75Q41.51 13.15 41.51 13.68L41.51 13.68L41.51 13.68Q41.51 14.21 41.84 14.57L41.84 14.57L41.84 14.57Q42.17 14.94 42.75 14.94L42.75 14.94L42.75 14.94Q43.33 14.94 43.74 14.64L43.74 14.64L43.74 14.64Q44.14 14.34 44.14 13.87L44.14 13.87L44.14 13.87Q44.14 13.41 43.90 13.06L43.90 13.06L43.90 13.06Q43.67 12.71 43.31 12.46L43.31 12.46L43.31 12.46Q42.95 12.21 42.53 11.90L42.53 11.90L42.53 11.90Q42.11 11.59 41.76 11.29L41.76 11.29L41.76 11.29Q41.40 10.99 41.16 10.54L41.16 10.54L41.16 10.54Q40.92 10.08 40.92 9.53L40.92 9.53L40.92 9.53Q40.92 8.54 41.68 7.90L41.68 7.90L41.68 7.90Q42.43 7.27 43.58 7.27L43.58 7.27L43.58 7.27Q44.73 7.27 45.26 7.74L45.26 7.74L45.26 7.74Q45.79 8.22 45.79 8.81L45.79 8.81L45.79 8.81Q45.79 9.41 45.50 9.79L45.50 9.79L45.50 9.79Q45.21 10.18 44.74 10.18L44.74 10.18L44.74 10.18Q44.52 10.18 44.23 10.05L44.23 10.05L44.23 10.05Q44.59 9.60 44.59 9.09L44.59 9.09L44.59 9.09Q44.59 8.57 44.28 8.30L44.28 8.30L44.28 8.30Q43.96 8.04 43.49 8.04ZM49.64 9.95L49.64 9.95L49.64 9.95Q49.24 10.65 49.02 11.39L49.02 11.39L49.02 11.39Q48.80 12.12 48.80 12.80L48.80 12.80L48.80 12.80Q48.80 13.47 49.11 13.94L49.11 13.94L49.11 13.94Q49.41 14.41 49.97 14.41L49.97 14.41L49.97 14.41Q50.75 14.41 51.44 13.55L51.44 13.55L51.44 13.55Q52.12 12.68 52.49 11.46L52.49 11.46L52.49 11.46Q52.86 10.23 52.86 9.19L52.86 9.19L52.86 9.19Q52.86 8.15 52.78 7.48L52.78 7.48L52.78 7.48Q53.12 7.45 53.20 7.45L53.20 7.45L53.20 7.45Q54.39 7.45 54.39 8.67L54.39 8.67L54.39 8.67Q54.39 8.93 54.05 10.83L54.05 10.83L54.05 10.83Q53.72 12.73 53.72 13.87L53.72 13.87L53.72 13.87Q53.72 15.01 54.15 15.89L54.15 15.89L54.15 15.89Q53.27 15.71 52.87 15.11L52.87 15.11L52.87 15.11Q52.47 14.52 52.47 13.40L52.47 13.40L52.47 13.40Q52.47 13.20 52.53 12.64L52.53 12.64L52.53 12.64Q52.15 13.97 51.20 14.78L51.20 14.78L51.20 14.78Q50.25 15.60 49.33 15.60L49.33 15.60L49.33 15.60Q48.41 15.60 47.85 14.90L47.85 14.90L47.85 14.90Q47.29 14.21 47.29 12.99L47.29 12.99L47.29 12.99Q47.29 11.76 47.75 10.59L47.75 10.59L47.75 10.59Q48.20 9.42 49.12 8.57L49.12 8.57L49.12 8.57Q50.04 7.71 51.17 7.71L51.17 7.71L51.17 7.71Q51.66 7.71 52.25 7.91L52.25 7.91L52.25 7.91Q51.42 8.12 50.74 8.68L50.74 8.68L50.74 8.68Q50.05 9.24 49.64 9.95ZM70.39 4.20L70.39 4.20Q71.18 4.27 71.51 4.68L71.51 4.68L71.51 4.68Q71.85 5.10 71.85 5.82L71.85 5.82L71.85 5.82Q71.85 6.54 71.39 9.70L71.39 9.70L71.39 9.70Q70.92 12.87 70.92 14.13L70.92 14.13L70.92 14.13Q70.92 15.40 71.12 15.86L71.12 15.86L71.12 15.86Q70.20 15.55 69.84 15.04L69.84 15.04L69.84 15.04Q69.48 14.52 69.48 13.80L69.48 13.80L69.48 13.80Q69.48 13.09 69.80 10.79L69.80 10.79L69.80 10.79Q70.11 8.50 70.21 7.29L70.21 7.29L70.21 7.29Q69.64 8.40 68.30 10.43L68.30 10.43L68.30 10.43Q66.96 12.46 66.75 12.80L66.75 12.80L66.75 12.80Q66.42 12.99 66.05 12.99L66.05 12.99L66.05 12.99Q65.39 12.99 65.31 12.75L65.31 12.75L65.31 12.75Q65.16 12.36 64.83 11.50L64.83 11.50L64.83 11.50Q64.50 10.64 64.29 10.09L64.29 10.09L64.29 10.09Q63.67 8.55 63.18 7.50L63.18 7.50L63.18 7.50Q63.17 7.60 62.84 10.20L62.84 10.20L62.84 10.20Q62.51 12.80 62.51 14.34L62.51 14.34L62.51 14.34Q62.51 14.77 62.57 15.50L62.57 15.50L62.57 15.50Q61.11 15.50 61.11 14.62L61.11 14.62L61.11 14.62Q61.11 14.49 61.65 10.82L61.65 10.82L61.65 10.82Q62.19 7.14 62.19 5.70L62.19 5.70L62.19 5.63L62.19 5.63Q61.78 4.97 61.33 4.55L61.33 4.55L61.33 4.55Q61.67 4.19 62.16 4.19L62.16 4.19L62.16 4.19Q63.11 4.19 63.69 5.26L63.69 5.26L63.69 5.26Q64.27 6.33 66.28 11.61L66.28 11.61L66.28 11.61Q66.32 11.69 66.33 11.73L66.33 11.73L66.33 11.73Q66.46 11.54 67.02 10.72L67.02 10.72L67.02 10.72Q67.58 9.91 67.87 9.47L67.87 9.47L67.87 9.47Q68.15 9.03 68.66 8.21L68.66 8.21L68.66 8.21Q69.16 7.39 69.44 6.80L69.44 6.80L69.44 6.80Q70.22 5.21 70.39 4.20L70.39 4.20ZM79.39 10.83L79.39 10.83L79.39 10.83Q79.39 9.46 79.05 8.87L79.05 8.87L79.05 8.87Q78.71 8.27 78.07 8.27L78.07 8.27L78.07 8.27Q77.43 8.27 76.79 8.90L76.79 8.90L76.79 8.90Q76.15 9.52 75.77 10.44L75.77 10.44L75.77 10.44Q75.40 11.35 75.40 12.34L75.40 12.34L75.40 12.34Q75.40 13.33 75.78 14.05L75.78 14.05L75.78 14.05Q76.16 14.77 76.93 14.77L76.93 14.77L76.93 14.77Q78.02 14.77 78.71 13.48L78.71 13.48L78.71 13.48Q79.39 12.19 79.39 10.83ZM75.33 10.29L75.33 10.29Q75.87 8.78 76.77 8.09L76.77 8.09L76.77 8.09Q77.67 7.39 78.60 7.39L78.60 7.39L78.60 7.39Q79.53 7.39 80.15 8.21L80.15 8.21L80.15 8.21Q80.77 9.03 80.77 10.43L80.77 10.43L80.77 10.43Q80.77 11.97 80.18 13.29L80.18 13.29L80.18 13.29Q79.52 14.74 78.27 15.32L78.27 15.32L78.27 15.32Q77.60 15.64 76.79 15.64L76.79 15.64L76.79 15.64Q75.66 15.64 74.80 14.69L74.80 14.69L74.80 14.69Q73.95 13.75 73.95 11.99L73.95 11.99L73.95 11.99Q73.95 10.23 74.70 8.95L74.70 8.95L74.70 8.95Q75.46 7.66 76.76 7.15L76.76 7.15L76.76 7.15Q77.04 7.15 77.04 7.43L77.04 7.43L77.04 7.43Q75.66 8.34 75.33 10.29L75.33 10.29ZM85.05 15.43L85.05 15.43L85.05 15.43Q84.71 15.62 84.30 15.62L84.30 15.62L84.30 15.62Q83.89 15.62 83.85 15.41L83.85 15.41L83.85 15.41Q83.62 14.52 83.33 12.73L83.33 12.73L83.33 12.73Q83.03 10.95 82.73 9.61L82.73 9.61L82.73 9.61Q82.43 8.27 82.01 7.59L82.01 7.59L82.01 7.59Q82.52 7.22 83.01 7.22L83.01 7.22L83.01 7.22Q83.64 7.22 83.90 7.95L83.90 7.95L83.90 7.95Q84.17 8.67 84.41 10.97L84.41 10.97L84.41 10.97Q84.64 13.27 84.83 13.96L84.83 13.96L84.83 13.96Q87.54 8.72 87.54 7.04L87.54 7.04L87.54 7.04Q88.41 7.63 88.41 8.25L88.41 8.25L88.41 8.25Q88.41 8.88 87.83 9.98L87.83 9.98L87.83 9.98Q87.25 11.07 86.37 12.64L86.37 12.64L86.37 12.64Q85.50 14.20 85.05 15.43ZM91.55 15.64L91.55 15.64Q90.75 15.36 90.43 14.78L90.43 14.78L90.43 14.78Q90.12 14.20 90.12 13.37L90.12 13.37L90.12 13.37Q90.12 12.54 90.34 11.00L90.34 11.00L90.34 11.00Q90.57 9.46 90.57 8.61L90.57 8.61L90.57 8.61Q90.57 7.76 90.48 7.29L90.48 7.29L90.48 7.29Q90.73 7.27 90.89 7.27L90.89 7.27L90.89 7.27Q91.52 7.27 91.80 7.55L91.80 7.55L91.80 7.55Q92.08 7.83 92.08 8.47L92.08 8.47L92.08 8.47Q92.08 8.68 91.74 10.68L91.74 10.68L91.74 10.68Q91.39 12.67 91.39 13.96L91.39 13.96L91.39 13.96Q91.38 15.26 91.55 15.64L91.55 15.64ZM91.76 5.88L91.76 5.88L91.76 5.88Q90.58 5.88 90.58 5.08L90.58 5.08L90.58 5.08Q90.58 4.80 90.79 4.30L90.79 4.30L90.79 4.30Q91.10 4.24 91.32 4.24L91.32 4.24L91.32 4.24Q92.50 4.24 92.50 5.04L92.50 5.04L92.50 5.04Q92.50 5.32 92.29 5.82L92.29 5.82L92.29 5.82Q91.98 5.88 91.76 5.88ZM97.85 8.08L97.85 8.08L97.85 8.08Q97.01 8.08 96.43 9.04L96.43 9.04L96.43 9.04Q95.84 10.01 95.65 11.31L95.65 11.31L96.04 11.31L96.04 11.31Q96.78 11.31 97.33 11.10L97.33 11.10L97.33 11.10Q97.87 10.89 98.17 10.56L98.17 10.56L98.17 10.56Q98.73 9.91 98.73 9.10L98.73 9.10L98.73 9.10Q98.73 8.64 98.51 8.36L98.51 8.36L98.51 8.36Q98.29 8.08 97.85 8.08ZM99.82 13.75L99.82 13.75Q99.18 14.80 98.41 15.22L98.41 15.22L98.41 15.22Q97.64 15.64 96.62 15.64L96.62 15.64L96.62 15.64Q95.61 15.64 94.85 14.74L94.85 14.74L94.85 14.74Q94.09 13.85 94.09 12.22L94.09 12.22L94.09 12.22Q94.09 10.37 95.09 8.92L95.09 8.92L95.09 8.92Q95.58 8.22 96.37 7.78L96.37 7.78L96.37 7.78Q97.16 7.35 98.11 7.35L98.11 7.35L98.11 7.35Q100.21 7.35 100.21 9.38L100.21 9.38L100.21 9.38Q100.21 10.60 99.27 11.29L99.27 11.29L99.27 11.29Q98.32 11.98 97.08 11.98L97.08 11.98L97.08 11.98Q96.25 11.98 95.59 11.83L95.59 11.83L95.59 11.83Q95.58 11.97 95.58 12.26L95.58 12.26L95.58 12.26Q95.58 14.74 97.05 14.74L97.05 14.74L97.05 14.74Q98.43 14.74 99.30 13.37L99.30 13.37L99.30 13.37Q99.82 13.44 99.82 13.75L99.82 13.75ZM104.74 8.04L104.74 8.04L104.74 8.04Q104.27 8.04 103.90 8.33L103.90 8.33L103.90 8.33Q103.53 8.62 103.53 9.14L103.53 9.14L103.53 9.14Q103.53 9.65 103.87 10.09L103.87 10.09L103.87 10.09Q104.22 10.54 104.71 10.89L104.71 10.89L104.71 10.89Q105.20 11.24 105.70 11.61L105.70 11.61L105.70 11.61Q106.88 12.47 106.88 13.47L106.88 13.47L106.88 13.47Q106.88 14.46 106.08 15.09L106.08 15.09L106.08 15.09Q105.28 15.71 104.04 15.71L104.04 15.71L104.04 15.71Q102.80 15.71 102.12 15.22L102.12 15.22L102.12 15.22Q101.44 14.73 101.44 14.06L101.44 14.06L101.44 14.06Q101.44 13.40 101.78 13.02L101.78 13.02L101.78 13.02Q102.12 12.64 102.59 12.64L102.59 12.64L102.59 12.64Q102.84 12.64 103.07 12.75L103.07 12.75L103.07 12.75Q102.76 13.15 102.76 13.68L102.76 13.68L102.76 13.68Q102.76 14.21 103.09 14.57L103.09 14.57L103.09 14.57Q103.42 14.94 104.00 14.94L104.00 14.94L104.00 14.94Q104.58 14.94 104.99 14.64L104.99 14.64L104.99 14.64Q105.39 14.34 105.39 13.87L105.39 13.87L105.39 13.87Q105.39 13.41 105.15 13.06L105.15 13.06L105.15 13.06Q104.92 12.71 104.56 12.46L104.56 12.46L104.56 12.46Q104.20 12.21 103.78 11.90L103.78 11.90L103.78 11.90Q103.36 11.59 103.01 11.29L103.01 11.29L103.01 11.29Q102.65 10.99 102.41 10.54L102.41 10.54L102.41 10.54Q102.17 10.08 102.17 9.53L102.17 9.53L102.17 9.53Q102.17 8.54 102.93 7.90L102.93 7.90L102.93 7.90Q103.68 7.27 104.83 7.27L104.83 7.27L104.83 7.27Q105.98 7.27 106.51 7.74L106.51 7.74L106.51 7.74Q107.04 8.22 107.04 8.81L107.04 8.81L107.04 8.81Q107.04 9.41 106.75 9.79L106.75 9.79L106.75 9.79Q106.46 10.18 105.99 10.18L105.99 10.18L105.99 10.18Q105.77 10.18 105.48 10.05L105.48 10.05L105.48 10.05Q105.84 9.60 105.84 9.09L105.84 9.09L105.84 9.09Q105.84 8.57 105.53 8.30L105.53 8.30L105.53 8.30Q105.21 8.04 104.74 8.04ZM117.73 4.72L117.73 4.72Q116.33 5.75 115.59 7.65L115.59 7.65L115.59 7.65Q114.86 9.55 114.86 11.49L114.86 11.49L114.86 11.49Q114.86 13.44 115.56 14.97L115.56 14.97L115.56 14.97Q116.27 16.51 117.07 17.12L117.07 17.12L117.07 17.12Q117.01 17.36 116.76 17.43L116.76 17.43L116.76 17.43Q113.33 15.53 113.33 11.41L113.33 11.41L113.33 11.41Q113.33 9.06 114.37 7.25L114.37 7.25L114.37 7.25Q115.42 5.43 117.47 4.41L117.47 4.41L117.47 4.41Q117.73 4.48 117.73 4.72L117.73 4.72ZM127.78 4.20L127.78 4.20Q128.56 4.27 128.90 4.68L128.90 4.68L128.90 4.68Q129.23 5.10 129.23 5.82L129.23 5.82L129.23 5.82Q129.23 6.54 128.77 9.70L128.77 9.70L128.77 9.70Q128.31 12.87 128.31 14.13L128.31 14.13L128.31 14.13Q128.31 15.40 128.51 15.86L128.51 15.86L128.51 15.86Q127.58 15.55 127.23 15.04L127.23 15.04L127.23 15.04Q126.87 14.52 126.87 13.80L126.87 13.80L126.87 13.80Q126.87 13.09 127.18 10.79L127.18 10.79L127.18 10.79Q127.50 8.50 127.60 7.29L127.60 7.29L127.60 7.29Q127.02 8.40 125.69 10.43L125.69 10.43L125.69 10.43Q124.35 12.46 124.14 12.80L124.14 12.80L124.14 12.80Q123.80 12.99 123.44 12.99L123.44 12.99L123.44 12.99Q122.78 12.99 122.70 12.75L122.70 12.75L122.70 12.75Q122.54 12.36 122.21 11.50L122.21 11.50L122.21 11.50Q121.88 10.64 121.67 10.09L121.67 10.09L121.67 10.09Q121.06 8.55 120.57 7.50L120.57 7.50L120.57 7.50Q120.55 7.60 120.23 10.20L120.23 10.20L120.23 10.20Q119.90 12.80 119.90 14.34L119.90 14.34L119.90 14.34Q119.90 14.77 119.95 15.50L119.95 15.50L119.95 15.50Q118.50 15.50 118.50 14.62L118.50 14.62L118.50 14.62Q118.50 14.49 119.04 10.82L119.04 10.82L119.04 10.82Q119.57 7.14 119.57 5.70L119.57 5.70L119.57 5.63L119.57 5.63Q119.17 4.97 118.72 4.55L118.72 4.55L118.72 4.55Q119.06 4.19 119.55 4.19L119.55 4.19L119.55 4.19Q120.50 4.19 121.08 5.26L121.08 5.26L121.08 5.26Q121.66 6.33 123.66 11.61L123.66 11.61L123.66 11.61Q123.70 11.69 123.72 11.73L123.72 11.73L123.72 11.73Q123.84 11.54 124.40 10.72L124.40 10.72L124.40 10.72Q124.96 9.91 125.25 9.47L125.25 9.47L125.25 9.47Q125.54 9.03 126.04 8.21L126.04 8.21L126.04 8.21Q126.55 7.39 126.83 6.80L126.83 6.80L126.83 6.80Q127.61 5.21 127.78 4.20L127.78 4.20ZM140.76 4.20L140.76 4.20Q141.54 4.27 141.88 4.68L141.88 4.68L141.88 4.68Q142.21 5.10 142.21 5.82L142.21 5.82L142.21 5.82Q142.21 6.54 141.75 9.70L141.75 9.70L141.75 9.70Q141.29 12.87 141.29 14.13L141.29 14.13L141.29 14.13Q141.29 15.40 141.48 15.86L141.48 15.86L141.48 15.86Q140.56 15.55 140.20 15.04L140.20 15.04L140.20 15.04Q139.85 14.52 139.85 13.80L139.85 13.80L139.85 13.80Q139.85 13.09 140.16 10.79L140.16 10.79L140.16 10.79Q140.48 8.50 140.57 7.29L140.57 7.29L140.57 7.29Q140 8.40 138.66 10.43L138.66 10.43L138.66 10.43Q137.33 12.46 137.12 12.80L137.12 12.80L137.12 12.80Q136.78 12.99 136.42 12.99L136.42 12.99L136.42 12.99Q135.76 12.99 135.67 12.75L135.67 12.75L135.67 12.75Q135.52 12.36 135.19 11.50L135.19 11.50L135.19 11.50Q134.86 10.64 134.65 10.09L134.65 10.09L134.65 10.09Q134.04 8.55 133.55 7.50L133.55 7.50L133.55 7.50Q133.53 7.60 133.20 10.20L133.20 10.20L133.20 10.20Q132.87 12.80 132.87 14.34L132.87 14.34L132.87 14.34Q132.87 14.77 132.93 15.50L132.93 15.50L132.93 15.50Q131.47 15.50 131.47 14.62L131.47 14.62L131.47 14.62Q131.47 14.49 132.01 10.82L132.01 10.82L132.01 10.82Q132.55 7.14 132.55 5.70L132.55 5.70L132.55 5.63L132.55 5.63Q132.15 4.97 131.70 4.55L131.70 4.55L131.70 4.55Q132.03 4.19 132.52 4.19L132.52 4.19L132.52 4.19Q133.48 4.19 134.06 5.26L134.06 5.26L134.06 5.26Q134.64 6.33 136.64 11.61L136.64 11.61L136.64 11.61Q136.68 11.69 136.70 11.73L136.70 11.73L136.70 11.73Q136.82 11.54 137.38 10.72L137.38 10.72L137.38 10.72Q137.94 9.91 138.23 9.47L138.23 9.47L138.23 9.47Q138.52 9.03 139.02 8.21L139.02 8.21L139.02 8.21Q139.52 7.39 139.80 6.80L139.80 6.80L139.80 6.80Q140.59 5.21 140.76 4.20L140.76 4.20ZM142.91 17.12L142.91 17.12Q144.31 16.09 145.05 14.19L145.05 14.19L145.05 14.19Q145.78 12.29 145.78 10.35L145.78 10.35L145.78 10.35Q145.78 8.40 145.08 6.87L145.08 6.87L145.08 6.87Q144.37 5.33 143.57 4.72L143.57 4.72L143.57 4.72Q143.63 4.48 143.88 4.41L143.88 4.41L143.88 4.41Q147.31 6.31 147.31 10.43L147.31 10.43L147.31 10.43Q147.31 12.78 146.27 14.60L146.27 14.60L146.27 14.60Q145.22 16.41 143.16 17.43L143.16 17.43L143.16 17.43Q142.91 17.36 142.91 17.12L142.91 17.12Z"></path></g><!----><g data-v-423bf9ae="" id="4218ef03-dbaf-4ef6-bedd-cb9069956cb4" transform="matrix(1.1249718911518591,0,0,1.1249718911518591,-11.248741428155661,-10.249468985852026)" stroke="none" fill="white"><path stroke-width="2" stroke-linecap="round" stroke-linejoin="round" stroke-miterlimit="10" d="M82.94 90l6.938-35.205c.733-3.932-1.937-7.15-5.936-7.15H16.057c-4.002 0-6.672 3.218-5.935 7.15L17.059 90H82.94zM47.459 38.233h-4.52l-4.706-9.413h-16.47a4.705 4.705 0 0 0-4.702 4.707v14.118h28.524l1.874-9.412z"></path><path stroke="#000" stroke-width="2.00004" stroke-linecap="round" stroke-linejoin="round" stroke-miterlimit="10" d="M65.769 12.526l11.537 2.295-2.066 10.384-11.537-2.295z"></path><path stroke="#000" stroke-width="2.00008" stroke-linecap="round" stroke-linejoin="round" stroke-miterlimit="10" d="M83.075 15.97L90 17.346l-1.374 6.926-6.925-1.374z"></path><path stroke="#000" stroke-width="2.00008" stroke-linecap="round" stroke-linejoin="round" stroke-miterlimit="10" d="M81.699 22.896l6.925 1.378-1.377 6.922-6.926-1.379z"></path><path stroke="#000" stroke-width="2.00008" stroke-linecap="round" stroke-linejoin="round" stroke-miterlimit="10" d="M80.32 29.817l6.926 1.378-1.378 6.926-6.925-1.379z"></path><path stroke="#000" stroke-width="2.00004" stroke-linecap="round" stroke-linejoin="round" stroke-miterlimit="10" d="M53.073 9.998l6.926 1.378-1.377 6.922-6.926-1.378z"></path><path stroke="#000" stroke-width="2.00008" stroke-linecap="round" stroke-linejoin="round" stroke-miterlimit="10" d="M51.696 16.923L58.62 18.3l-1.378 6.925-6.924-1.378z"></path><path stroke="#000" stroke-width="2.00004" stroke-linecap="round" stroke-linejoin="round" stroke-miterlimit="10" d="M50.315 23.848l6.927 1.374-1.374 6.926-6.927-1.374z"></path><path stroke="#000" stroke-width="2.00004" stroke-linecap="round" stroke-linejoin="round" stroke-miterlimit="10" d="M48.942 30.77l6.926 1.377-1.377 6.922-6.926-1.378z"></path><path stroke="#000" stroke-width="2" stroke-linecap="round" stroke-linejoin="round" stroke-miterlimit="10" d="M76.773 47.645l6.302-31.678-23.078-4.592-7.214 36.27z"></path><path stroke="#000" stroke-width="2" stroke-linecap="round" stroke-linejoin="round" stroke-miterlimit="10" d="M70.776 47.645l3.316-16.675-11.539-2.294-3.773 18.969zM83.943 47.645c.01 0 .019.004.029.004l1.895-9.533-6.925-1.378-2.17 10.907h7.171zM52.783 47.645l1.705-8.575-6.925-1.378-1.98 9.953z"></path></g><!----><g data-v-423bf9ae="" id="358ddca1-c964-411e-85da-3dc72cb379b4" fill="white" transform="matrix(2.203581208722754,0,0,2.203581208722754,108.60987891405586,47.48365771466412)"><path d="M6.59 9.21L6.59 8.71L6.59 8.71Q6.59 8.23 6.41 7.87L6.41 7.87L6.41 7.87Q6.22 7.50 5.89 7.27L5.89 7.27L5.89 7.27Q5.57 7.03 5.15 6.90L5.15 6.90L5.15 6.90Q4.73 6.78 4.27 6.78L4.27 6.78L4.27 6.78Q3.86 6.78 3.50 6.88L3.50 6.88L3.50 6.88Q3.14 6.99 2.85 7.18L2.85 7.18L2.85 7.18Q2.56 7.38 2.39 7.66L2.39 7.66L2.39 7.66Q2.23 7.95 2.23 8.33L2.23 8.33L2.23 8.41L2.23 8.41Q2.23 8.82 2.39 9.11L2.39 9.11L2.39 9.11Q2.56 9.39 2.89 9.60L2.89 9.60L2.89 9.60Q3.22 9.80 3.71 9.93L3.71 9.93L3.71 9.93Q4.20 10.07 4.86 10.16L4.86 10.16L4.86 10.16Q6.40 10.40 7.13 11.07L7.13 11.07L7.13 11.07Q7.85 11.73 7.85 12.85L7.85 12.85L7.85 13.02L7.85 13.02Q7.85 13.65 7.64 14.17L7.64 14.17L7.64 14.17Q7.42 14.70 6.99 15.08L6.99 15.08L6.99 15.08Q6.57 15.46 5.94 15.67L5.94 15.67L5.94 15.67Q5.31 15.88 4.48 15.88L4.48 15.88L4.48 15.88Q3.54 15.88 2.82 15.60L2.82 15.60L2.82 15.60Q2.10 15.33 1.62 14.85L1.62 14.85L1.62 14.85Q1.13 14.36 0.88 13.71L0.88 13.71L0.88 13.71Q0.63 13.06 0.63 12.29L0.63 12.29L0.63 11.87L1.81 11.87L1.81 12.21L1.81 12.21Q1.81 13.50 2.51 14.14L2.51 14.14L2.51 14.14Q3.22 14.78 4.48 14.78L4.48 14.78L4.48 14.78Q5.57 14.78 6.13 14.30L6.13 14.30L6.13 14.30Q6.68 13.82 6.68 13.02L6.68 13.02L6.68 12.94L6.68 12.94Q6.68 12.17 6.11 11.76L6.11 11.76L6.11 11.76Q5.54 11.35 4.27 11.17L4.27 11.17L4.27 11.17Q3.53 11.07 2.93 10.87L2.93 10.87L2.93 10.87Q2.34 10.67 1.92 10.34L1.92 10.34L1.92 10.34Q1.50 10.01 1.27 9.55L1.27 9.55L1.27 9.55Q1.05 9.09 1.05 8.46L1.05 8.46L1.05 8.29L1.05 8.29Q1.05 7.71 1.29 7.24L1.29 7.24L1.29 7.24Q1.53 6.76 1.95 6.41L1.95 6.41L1.95 6.41Q2.38 6.06 2.98 5.87L2.98 5.87L2.98 5.87Q3.57 5.68 4.28 5.68L4.28 5.68L4.28 5.68Q5.11 5.68 5.76 5.92L5.76 5.92L5.76 5.92Q6.41 6.16 6.86 6.56L6.86 6.56L6.86 6.56Q7.31 6.96 7.54 7.50L7.54 7.50L7.54 7.50Q7.77 8.04 7.77 8.62L7.77 8.62L7.77 9.21L6.59 9.21ZM16.88 15.68L16.88 5.88L22.82 5.88L22.82 6.97L18.06 6.97L18.06 10.22L22.74 10.22L22.74 11.31L18.06 11.31L18.06 14.59L22.90 14.59L22.90 15.68L16.88 15.68ZM38.23 15.68L37.52 13.24L33.32 13.24L32.61 15.68L31.35 15.68L34.31 5.88L36.53 5.88L39.49 15.68L38.23 15.68ZM35.50 6.38L35.34 6.38L33.64 12.15L37.20 12.15L35.50 6.38ZM54.05 12.15L54.05 15.68L52.88 15.68L52.88 12.40L52.88 12.40Q52.88 12.04 52.71 11.84L52.71 11.84L52.71 11.84Q52.54 11.65 52.12 11.65L52.12 11.65L49.07 11.65L49.07 15.68L47.89 15.68L47.89 5.88L51.39 5.88L51.39 5.88Q52.15 5.88 52.71 6.10L52.71 6.10L52.71 6.10Q53.27 6.31 53.64 6.68L53.64 6.68L53.64 6.68Q54.01 7.04 54.20 7.53L54.20 7.53L54.20 7.53Q54.39 8.01 54.39 8.54L54.39 8.54L54.39 8.96L54.39 8.96Q54.39 9.51 54.09 10.05L54.09 10.05L54.09 10.05Q53.79 10.60 53.16 10.89L53.16 10.89L53.16 11.06L53.16 11.06Q53.58 11.13 53.82 11.40L53.82 11.40L53.82 11.40Q54.05 11.66 54.05 12.15L54.05 12.15ZM49.07 6.97L49.07 10.56L51.25 10.56L51.25 10.56Q52.25 10.56 52.73 10.13L52.73 10.13L52.73 10.13Q53.21 9.70 53.21 8.88L53.21 8.88L53.21 8.62L53.21 8.62Q53.21 7.88 52.73 7.43L52.73 7.43L52.73 7.43Q52.25 6.97 51.25 6.97L51.25 6.97L49.07 6.97ZM66.61 14.78L66.61 14.78L66.61 14.78Q67.21 14.78 67.64 14.58L67.64 14.58L67.64 14.58Q68.07 14.38 68.34 14.04L68.34 14.04L68.34 14.04Q68.61 13.69 68.75 13.25L68.75 13.25L68.75 13.25Q68.88 12.81 68.88 12.32L68.88 12.32L68.88 12.15L70.06 12.15L70.06 12.32L70.06 12.32Q70.06 13.06 69.83 13.71L69.83 13.71L69.83 13.71Q69.61 14.36 69.17 14.85L69.17 14.85L69.17 14.85Q68.74 15.33 68.10 15.60L68.10 15.60L68.10 15.60Q67.45 15.88 66.61 15.88L66.61 15.88L66.61 15.88Q64.99 15.88 64.08 14.85L64.08 14.85L64.08 14.85Q63.17 13.83 63.17 11.87L63.17 11.87L63.17 9.69L63.17 9.69Q63.17 7.78 64.08 6.73L64.08 6.73L64.08 6.73Q64.99 5.68 66.61 5.68L66.61 5.68L66.61 5.68Q67.45 5.68 68.10 5.96L68.10 5.96L68.10 5.96Q68.74 6.23 69.17 6.71L69.17 6.71L69.17 6.71Q69.61 7.20 69.83 7.85L69.83 7.85L69.83 7.85Q70.06 8.50 70.06 9.24L70.06 9.24L70.06 9.41L68.88 9.41L68.88 9.24L68.88 9.24Q68.87 8.76 68.73 8.32L68.73 8.32L68.73 8.32Q68.60 7.87 68.33 7.53L68.33 7.53L68.33 7.53Q68.05 7.18 67.63 6.98L67.63 6.98L67.63 6.98Q67.21 6.78 66.61 6.78L66.61 6.78L66.61 6.78Q65.48 6.78 64.91 7.60L64.91 7.60L64.91 7.60Q64.34 8.43 64.34 9.77L64.34 9.77L64.34 11.79L64.34 11.79Q64.34 13.23 64.91 14.01L64.91 14.01L64.91 14.01Q65.48 14.78 66.61 14.78ZM78.86 15.68L78.86 5.88L80.04 5.88L80.04 10.22L84.21 10.22L84.21 5.88L85.39 5.88L85.39 15.68L84.21 15.68L84.21 11.31L80.04 11.31L80.04 15.68L78.86 15.68ZM109.90 5.88L111.08 5.88L111.08 12.38L111.08 12.38Q111.08 13.57 111.63 14.17L111.63 14.17L111.63 14.17Q112.18 14.78 113.26 14.78L113.26 14.78L113.26 14.78Q114.34 14.78 114.89 14.17L114.89 14.17L114.89 14.17Q115.44 13.57 115.44 12.38L115.44 12.38L115.44 5.88L116.62 5.88L116.62 12.38L116.62 12.38Q116.62 14.08 115.72 14.98L115.72 14.98L115.72 14.98Q114.83 15.88 113.26 15.88L113.26 15.88L113.26 15.88Q111.69 15.88 110.80 14.98L110.80 14.98L110.80 14.98Q109.90 14.08 109.90 12.38L109.90 12.38L109.90 5.88ZM127.92 5.88L130.75 15.18L130.91 15.18L130.91 5.88L132.09 5.88L132.09 15.68L129.74 15.68L126.91 6.38L126.74 6.38L126.74 15.68L125.57 15.68L125.57 5.88L127.92 5.88ZM141.33 15.68L141.33 5.88L142.51 5.88L142.51 14.59L147.63 14.59L147.63 15.68L141.33 15.68ZM156.86 6.97L156.86 5.88L163.07 5.88L163.07 6.97L160.55 6.97L160.55 14.59L163.07 14.59L163.07 15.68L156.86 15.68L156.86 14.59L159.38 14.59L159.38 6.97L156.86 6.97ZM171.89 15.68L171.89 5.88L174.13 5.88L175.45 15.18L175.62 15.18L176.93 5.88L179.17 5.88L179.17 15.68L178.08 15.68L178.08 6.38L177.91 6.38L176.60 15.68L174.47 15.68L173.15 6.38L172.98 6.38L172.98 15.68L171.89 15.68ZM187.99 6.97L187.99 5.88L194.21 5.88L194.21 6.97L191.69 6.97L191.69 14.59L194.21 14.59L194.21 15.68L187.99 15.68L187.99 14.59L190.51 14.59L190.51 6.97L187.99 6.97ZM203.22 6.97L203.22 5.88L210.11 5.88L210.11 6.97L207.26 6.97L207.26 15.68L206.08 15.68L206.08 6.97L203.22 6.97ZM219.27 15.68L219.27 5.88L225.20 5.88L225.20 6.97L220.44 6.97L220.44 10.22L225.12 10.22L225.12 11.31L220.44 11.31L220.44 14.59L225.29 14.59L225.29 15.68L219.27 15.68ZM234.54 6.97L234.54 5.88L237.76 5.88L237.76 5.88Q239.58 5.88 240.42 6.75L240.42 6.75L240.42 6.75Q241.26 7.62 241.26 9.52L241.26 9.52L241.26 12.04L241.26 12.04Q241.26 13.94 240.42 14.81L240.42 14.81L240.42 14.81Q239.58 15.68 237.76 15.68L237.76 15.68L234.54 15.68L234.54 14.57L235.38 14.57L235.38 6.97L234.54 6.97ZM236.56 14.59L237.59 14.59L237.59 14.59Q238.24 14.59 238.71 14.46L238.71 14.46L238.71 14.46Q239.18 14.34 239.48 14.04L239.48 14.04L239.48 14.04Q239.79 13.73 239.94 13.23L239.94 13.23L239.94 13.23Q240.09 12.73 240.09 11.96L240.09 11.96L240.09 9.60L240.09 9.60Q240.09 8.83 239.94 8.33L239.94 8.33L239.94 8.33Q239.79 7.83 239.48 7.53L239.48 7.53L239.48 7.53Q239.18 7.22 238.71 7.10L238.71 7.10L238.71 7.10Q238.24 6.97 237.59 6.97L237.59 6.97L236.56 6.97L236.56 14.59Z"></path></g></svg>